STARTFONT 2.1
FONT -FontForge-Nunito-Black-R-Normal--17-120-100-100-P-101-ISO10646-1
SIZE 12 100 100
FONTBOUNDINGBOX 25 29 -2 -6
COMMENT "Generated by fontforge, http://fontforge.sourceforge.net"
COMMENT "Digitized data Copyright (c) 2011-2013, vernon adams."
STARTPROPERTIES 39
FOUNDRY "FontForge"
FAMILY_NAME "Nunito"
WEIGHT_NAME "Black"
SLANT "R"
SETWIDTH_NAME "Normal"
ADD_STYLE_NAME ""
PIXEL_SIZE 17
POINT_SIZE 120
RESOLUTION_X 100
RESOLUTION_Y 100
SPACING "P"
AVERAGE_WIDTH 101
CHARSET_REGISTRY "ISO10646"
CHARSET_ENCODING "1"
FONTNAME_REGISTRY ""
CHARSET_COLLECTIONS "ISO8859-2 ISO8859-9 ISO8859-4 ISO10646-1"
FONT_NAME "Nunito-Black"
FACE_NAME "Nunito Black"
COPYRIGHT "Digitized data Copyright (c) 2011-2013, vernon adams."
FONT_VERSION "2.0; ttfautohint (v1.00rc1.6-4cba) -l 8 -r 50 -G 200 -x 0 -D latn -f none -w G -W"
FONT_ASCENT 14
FONT_DESCENT 3
UNDERLINE_POSITION 0
UNDERLINE_THICKNESS 0
X_HEIGHT 8
CAP_HEIGHT 12
RAW_ASCENT 799
RAW_DESCENT 200
NORM_SPACE 5
RELATIVE_WEIGHT 90
RELATIVE_SETWIDTH 50
SUPERSCRIPT_X 0
SUPERSCRIPT_Y 8
SUPERSCRIPT_SIZE 11
SUBSCRIPT_X 0
SUBSCRIPT_Y 2
SUBSCRIPT_SIZE 11
AVG_LOWERCASE_WIDTH 93
AVG_UPPERCASE_WIDTH 120
ENDPROPERTIES
CHARS 504
STARTCHAR uni0002
ENCODING 2
SWIDTH 292 0
DWIDTH 5 0
BBX 1 1 0 0
BITMAP
00
ENDCHAR
STARTCHAR uni0009
ENCODING 9
SWIDTH 292 0
DWIDTH 5 0
BBX 1 1 0 0
BITMAP
00
ENDCHAR
STARTCHAR uni000A
ENCODING 10
SWIDTH 292 0
DWIDTH 5 0
BBX 1 1 0 0
BITMAP
00
ENDCHAR
STARTCHAR uni000D
ENCODING 13
SWIDTH 292 0
DWIDTH 5 0
BBX 1 1 0 0
BITMAP
00
ENDCHAR
STARTCHAR space
ENCODING 32
SWIDTH 275 0
DWIDTH 5 0
BBX 1 1 0 0
BITMAP
00
ENDCHAR
STARTCHAR exclam
ENCODING 33
SWIDTH 378 0
DWIDTH 6 0
BBX 3 13 2 0
BITMAP
E0
E0
E0
E0
E0
C0
C0
C0
40
00
C0
E0
C0
ENDCHAR
STARTCHAR quotedbl
ENCODING 34
SWIDTH 441 0
DWIDTH 8 0
BBX 5 5 1 8
BITMAP
D8
D8
D8
D8
48
ENDCHAR
STARTCHAR numbersign
ENCODING 35
SWIDTH 633 0
DWIDTH 11 0
BBX 9 13 1 0
BITMAP
1300
1300
1200
3200
7F80
7F80
3600
FF00
FF00
2400
6400
6400
6400
ENDCHAR
STARTCHAR dollar
ENCODING 36
SWIDTH 523 0
DWIDTH 9 0
BBX 7 14 1 -1
BITMAP
10
10
38
FC
C4
C0
FC
7E
0E
8E
FC
78
10
10
ENDCHAR
STARTCHAR percent
ENCODING 37
SWIDTH 1029 0
DWIDTH 18 0
BBX 15 13 1 0
BITMAP
3820
7C20
CC60
CC40
CC80
CD9C
7D3E
3B66
0266
0666
0466
0C3E
083C
ENDCHAR
STARTCHAR ampersand
ENCODING 38
SWIDTH 771 0
DWIDTH 13 0
BBX 11 13 1 0
BITMAP
3E00
7F00
6300
7600
3E60
3C60
FE60
EEE0
C7C0
C3C0
E3C0
FFE0
3E60
ENDCHAR
STARTCHAR quotesingle
ENCODING 39
SWIDTH 316 0
DWIDTH 5 0
BBX 2 5 2 8
BITMAP
C0
C0
C0
80
80
ENDCHAR
STARTCHAR parenleft
ENCODING 40
SWIDTH 335 0
DWIDTH 6 0
BBX 4 15 1 -2
BITMAP
30
30
70
60
60
E0
E0
E0
E0
E0
60
60
60
30
30
ENDCHAR
STARTCHAR parenright
ENCODING 41
SWIDTH 335 0
DWIDTH 6 0
BBX 4 15 1 -2
BITMAP
C0
C0
E0
60
60
60
60
70
70
60
60
60
E0
C0
C0
ENDCHAR
STARTCHAR asterisk
ENCODING 42
SWIDTH 468 0
DWIDTH 8 0
BBX 6 5 1 7
BITMAP
48
30
FC
30
48
ENDCHAR
STARTCHAR plus
ENCODING 43
SWIDTH 628 0
DWIDTH 11 0
BBX 9 9 1 0
BITMAP
0800
1800
1800
1800
FF80
FF00
1800
1800
0800
ENDCHAR
STARTCHAR comma
ENCODING 44
SWIDTH 316 0
DWIDTH 5 0
BBX 3 5 1 -3
BITMAP
60
E0
C0
C0
C0
ENDCHAR
STARTCHAR hyphen
ENCODING 45
SWIDTH 385 0
DWIDTH 7 0
BBX 6 2 0 4
BITMAP
7C
FC
ENDCHAR
STARTCHAR period
ENCODING 46
SWIDTH 316 0
DWIDTH 5 0
BBX 3 3 1 0
BITMAP
60
E0
60
ENDCHAR
STARTCHAR slash
ENCODING 47
SWIDTH 386 0
DWIDTH 7 0
BBX 5 14 1 -1
BITMAP
08
18
18
10
30
30
20
60
60
40
C0
C0
80
80
ENDCHAR
STARTCHAR zero
ENCODING 48
SWIDTH 633 0
DWIDTH 11 0
BBX 9 13 1 0
BITMAP
3E00
7F00
E300
E380
E380
E380
E380
E380
E380
E380
E300
7F00
3E00
ENDCHAR
STARTCHAR one
ENCODING 49
SWIDTH 633 0
DWIDTH 11 0
BBX 6 13 2 0
BITMAP
18
78
FC
DC
1C
1C
1C
1C
1C
1C
1C
18
18
ENDCHAR
STARTCHAR two
ENCODING 50
SWIDTH 633 0
DWIDTH 11 0
BBX 8 13 1 0
BITMAP
3C
FE
47
03
07
0F
1F
1E
3C
78
F0
FF
FF
ENDCHAR
STARTCHAR three
ENCODING 51
SWIDTH 633 0
DWIDTH 11 0
BBX 8 13 2 0
BITMAP
FC
FE
0F
07
0E
7E
7E
0E
07
07
07
FE
FC
ENDCHAR
STARTCHAR four
ENCODING 52
SWIDTH 633 0
DWIDTH 11 0
BBX 10 13 0 0
BITMAP
0700
0F00
1F80
1B80
3B80
3380
7380
6380
7FC0
FFC0
0380
0300
0300
ENDCHAR
STARTCHAR five
ENCODING 53
SWIDTH 633 0
DWIDTH 11 0
BBX 9 13 1 0
BITMAP
7F00
7F00
6000
6000
6000
7E00
7F00
4380
0380
0380
4380
FF00
3E00
ENDCHAR
STARTCHAR six
ENCODING 54
SWIDTH 633 0
DWIDTH 11 0
BBX 9 13 1 0
BITMAP
1F00
7F00
7000
E000
E000
DE00
FF00
E380
E380
E380
E380
7F00
3E00
ENDCHAR
STARTCHAR seven
ENCODING 55
SWIDTH 633 0
DWIDTH 11 0
BBX 9 13 1 0
BITMAP
FF80
FF80
0780
0700
0700
0E00
0E00
1E00
1C00
3C00
3800
3800
3000
ENDCHAR
STARTCHAR eight
ENCODING 56
SWIDTH 633 0
DWIDTH 11 0
BBX 9 13 1 0
BITMAP
3E00
7F00
E380
E380
E300
7F00
7F00
E300
E380
E380
E380
7F00
3E00
ENDCHAR
STARTCHAR nine
ENCODING 57
SWIDTH 633 0
DWIDTH 11 0
BBX 9 13 1 0
BITMAP
3E00
7F00
E300
C380
C380
E380
FF80
3F80
0380
0380
0700
FE00
7C00
ENDCHAR
STARTCHAR colon
ENCODING 58
SWIDTH 316 0
DWIDTH 5 0
BBX 3 9 1 0
BITMAP
60
E0
60
00
00
00
60
E0
60
ENDCHAR
STARTCHAR semicolon
ENCODING 59
SWIDTH 316 0
DWIDTH 5 0
BBX 3 11 1 -2
BITMAP
60
60
60
00
00
00
60
60
E0
C0
C0
ENDCHAR
STARTCHAR less
ENCODING 60
SWIDTH 628 0
DWIDTH 11 0
BBX 8 9 1 0
BITMAP
01
0F
3E
F8
E0
F8
3E
0F
03
ENDCHAR
STARTCHAR equal
ENCODING 61
SWIDTH 628 0
DWIDTH 11 0
BBX 9 6 1 2
BITMAP
FF00
FF80
0000
0000
FF00
FF80
ENDCHAR
STARTCHAR greater
ENCODING 62
SWIDTH 628 0
DWIDTH 11 0
BBX 8 9 1 0
BITMAP
80
E0
7C
1F
07
1F
7C
F0
80
ENDCHAR
STARTCHAR question
ENCODING 63
SWIDTH 519 0
DWIDTH 9 0
BBX 7 13 1 0
BITMAP
F8
FC
FE
0E
0E
1E
3C
30
70
20
30
70
30
ENDCHAR
STARTCHAR at
ENCODING 64
SWIDTH 799 0
DWIDTH 14 0
BBX 13 13 0 0
BITMAP
07C0
1FF0
3B30
6FD8
4CD8
D848
D8C8
D898
5990
6FE0
7000
3FC0
0F80
ENDCHAR
STARTCHAR A
ENCODING 65
SWIDTH 726 0
DWIDTH 12 0
BBX 12 13 0 0
BITMAP
0700
0F00
0F80
1F80
1D80
19C0
39C0
38E0
7FE0
7FE0
7070
E070
6020
ENDCHAR
STARTCHAR B
ENCODING 66
SWIDTH 695 0
DWIDTH 12 0
BBX 10 13 1 0
BITMAP
7F00
FF80
E3C0
E1C0
E1C0
E380
FF00
FF80
E1C0
E1C0
E1C0
FF80
7F00
ENDCHAR
STARTCHAR C
ENCODING 67
SWIDTH 684 0
DWIDTH 12 0
BBX 10 13 1 0
BITMAP
1F80
3FC0
7FC0
F000
E000
E000
E000
E000
E000
F040
7FC0
3FC0
1F00
ENDCHAR
STARTCHAR D
ENCODING 68
SWIDTH 753 0
DWIDTH 13 0
BBX 11 13 1 0
BITMAP
7E00
FF80
E1C0
E1C0
E0E0
E0E0
E0E0
E0E0
E0E0
E1E0
E1C0
FF80
7E00
ENDCHAR
STARTCHAR E
ENCODING 69
SWIDTH 609 0
DWIDTH 10 0
BBX 9 13 1 0
BITMAP
7F80
FF00
E000
E000
E000
E000
FF00
FF00
E000
E000
E000
FF80
7F80
ENDCHAR
STARTCHAR F
ENCODING 70
SWIDTH 569 0
DWIDTH 10 0
BBX 8 13 1 0
BITMAP
7F
FF
E0
E0
E0
E0
FF
FF
E0
E0
E0
E0
60
ENDCHAR
STARTCHAR G
ENCODING 71
SWIDTH 746 0
DWIDTH 13 0
BBX 11 13 1 0
BITMAP
1F80
3FE0
7040
F000
E000
E000
E3E0
E3E0
E0E0
F0E0
78E0
3FE0
1FC0
ENDCHAR
STARTCHAR H
ENCODING 72
SWIDTH 760 0
DWIDTH 13 0
BBX 11 13 1 0
BITMAP
60C0
E0E0
E0E0
E0E0
E0E0
FFE0
FFE0
FFE0
E0E0
E0E0
E0E0
E0E0
60C0
ENDCHAR
STARTCHAR I
ENCODING 73
SWIDTH 335 0
DWIDTH 6 0
BBX 3 13 1 0
BITMAP
60
E0
E0
E0
E0
E0
E0
E0
E0
E0
E0
E0
60
ENDCHAR
STARTCHAR J
ENCODING 74
SWIDTH 571 0
DWIDTH 10 0
BBX 8 13 1 0
BITMAP
06
07
07
07
07
07
07
07
07
8F
FE
FE
7C
ENDCHAR
STARTCHAR K
ENCODING 75
SWIDTH 692 0
DWIDTH 12 0
BBX 10 13 1 0
BITMAP
60C0
E1C0
E3C0
E780
EF00
EE00
FE00
EF00
E700
E380
E3C0
E1C0
60C0
ENDCHAR
STARTCHAR L
ENCODING 76
SWIDTH 580 0
DWIDTH 10 0
BBX 9 13 1 0
BITMAP
6000
E000
E000
E000
E000
E000
E000
E000
E000
E000
E000
FF80
7F00
ENDCHAR
STARTCHAR M
ENCODING 77
SWIDTH 979 0
DWIDTH 17 0
BBX 14 13 1 0
BITMAP
7018
F83C
F83C
F87C
FC6C
ECEC
EEEC
E6CC
E7CC
E78C
E38C
E30C
400C
ENDCHAR
STARTCHAR N
ENCODING 78
SWIDTH 785 0
DWIDTH 13 0
BBX 11 13 1 0
BITMAP
6060
F060
F060
F860
FC60
EC60
EE60
E760
E3E0
E3E0
E1E0
E0E0
6060
ENDCHAR
STARTCHAR O
ENCODING 79
SWIDTH 797 0
DWIDTH 14 0
BBX 12 13 1 0
BITMAP
1F80
7FC0
70E0
E0E0
E0F0
E0F0
E070
E0F0
E0F0
E0E0
70E0
7FC0
1F80
ENDCHAR
STARTCHAR P
ENCODING 80
SWIDTH 674 0
DWIDTH 11 0
BBX 10 13 1 0
BITMAP
7F00
FF80
E1C0
E1C0
E1C0
E1C0
FF80
FF00
E000
E000
E000
E000
6000
ENDCHAR
STARTCHAR Q
ENCODING 81
SWIDTH 797 0
DWIDTH 14 0
BBX 12 15 1 -2
BITMAP
1F80
7FC0
70E0
E0E0
E0F0
E0F0
E070
E0F0
E0F0
E0E0
70E0
7FC0
1FC0
01E0
0070
ENDCHAR
STARTCHAR R
ENCODING 82
SWIDTH 707 0
DWIDTH 12 0
BBX 10 13 1 0
BITMAP
7F00
FFC0
E1C0
E1C0
E1C0
E1C0
FF00
FF80
E1C0
E1C0
E1C0
E1C0
60C0
ENDCHAR
STARTCHAR S
ENCODING 83
SWIDTH 651 0
DWIDTH 11 0
BBX 10 13 1 0
BITMAP
3F00
7F80
E100
E000
F000
FE00
7F80
1F80
03C0
0180
4380
FF80
7E00
ENDCHAR
STARTCHAR T
ENCODING 84
SWIDTH 595 0
DWIDTH 10 0
BBX 10 13 0 0
BITMAP
FFC0
FFC0
0E00
0E00
0E00
0E00
0E00
0E00
0E00
0E00
0E00
0E00
0C00
ENDCHAR
STARTCHAR U
ENCODING 85
SWIDTH 746 0
DWIDTH 13 0
BBX 11 13 1 0
BITMAP
60C0
E0E0
E1E0
E1E0
E1E0
E1E0
E1E0
E1E0
E1E0
E1C0
71C0
7F80
1F00
ENDCHAR
STARTCHAR V
ENCODING 86
SWIDTH 707 0
DWIDTH 12 0
BBX 10 13 1 0
BITMAP
00C0
C0C0
C1C0
E1C0
E180
7380
7380
7300
3F00
3F00
3E00
1E00
0C00
ENDCHAR
STARTCHAR W
ENCODING 87
SWIDTH 1069 0
DWIDTH 18 0
BBX 17 13 1 0
BITMAP
018000
C3C380
C3C380
E3E300
E7E700
E66700
666700
6E7600
7E3600
7C3E00
7C3E00
3C3C00
381C00
ENDCHAR
STARTCHAR X
ENCODING 88
SWIDTH 670 0
DWIDTH 11 0
BBX 10 13 1 0
BITMAP
4080
E1C0
F380
7380
3F00
3E00
1E00
3E00
7F00
7780
E380
C1C0
81C0
ENDCHAR
STARTCHAR Y
ENCODING 89
SWIDTH 647 0
DWIDTH 11 0
BBX 9 12 1 0
BITMAP
C180
E380
E380
7700
7F00
3E00
1C00
1C00
1C00
1C00
1C00
1C00
ENDCHAR
STARTCHAR Z
ENCODING 90
SWIDTH 601 0
DWIDTH 10 0
BBX 9 13 1 0
BITMAP
FF80
FF80
0700
0F00
0E00
1E00
3C00
3800
7800
7000
F000
FF80
FF80
ENDCHAR
STARTCHAR bracketleft
ENCODING 91
SWIDTH 384 0
DWIDTH 7 0
BBX 5 15 1 -2
BITMAP
78
F8
E0
E0
E0
E0
E0
E0
E0
E0
E0
E0
E0
F8
78
ENDCHAR
STARTCHAR backslash
ENCODING 92
SWIDTH 326 0
DWIDTH 6 0
BBX 6 13 0 0
BITMAP
C0
C0
40
60
60
20
30
30
10
18
18
08
0C
ENDCHAR
STARTCHAR bracketright
ENCODING 93
SWIDTH 384 0
DWIDTH 7 0
BBX 4 15 1 -2
BITMAP
F0
F0
30
30
30
30
30
30
30
30
30
30
30
F0
F0
ENDCHAR
STARTCHAR asciicircum
ENCODING 94
SWIDTH 628 0
DWIDTH 11 0
BBX 9 8 1 5
BITMAP
0800
1C00
1C00
3600
3600
6300
6300
C180
ENDCHAR
STARTCHAR underscore
ENCODING 95
SWIDTH 500 0
DWIDTH 9 0
BBX 8 1 0 -2
BITMAP
FF
ENDCHAR
STARTCHAR grave
ENCODING 96
SWIDTH 277 0
DWIDTH 5 0
BBX 4 5 0 10
BITMAP
40
E0
60
30
10
ENDCHAR
STARTCHAR a
ENCODING 97
SWIDTH 545 0
DWIDTH 9 0
BBX 7 9 1 0
BITMAP
7C
FE
06
3E
FE
C6
C6
FE
76
ENDCHAR
STARTCHAR b
ENCODING 98
SWIDTH 624 0
DWIDTH 11 0
BBX 9 13 1 0
BITMAP
C000
E000
E000
E000
FE00
FF00
E380
E380
E380
E380
E380
FF00
CE00
ENDCHAR
STARTCHAR c
ENCODING 99
SWIDTH 508 0
DWIDTH 9 0
BBX 7 9 1 0
BITMAP
3C
7E
E0
C0
C0
C0
E0
7E
3E
ENDCHAR
STARTCHAR d
ENCODING 100
SWIDTH 624 0
DWIDTH 11 0
BBX 9 13 1 0
BITMAP
0300
0380
0380
0380
7B80
FF80
E380
C380
C380
C380
E380
FF80
7B00
ENDCHAR
STARTCHAR e
ENCODING 101
SWIDTH 562 0
DWIDTH 10 0
BBX 8 9 1 0
BITMAP
3C
7E
E3
FF
FF
C0
E2
7F
3C
ENDCHAR
STARTCHAR f
ENCODING 102
SWIDTH 367 0
DWIDTH 6 0
BBX 7 13 0 0
BITMAP
1E
3C
30
30
FC
FC
30
30
30
30
30
30
30
ENDCHAR
STARTCHAR g
ENCODING 103
SWIDTH 617 0
DWIDTH 11 0
BBX 8 12 1 -3
BITMAP
7B
FF
E3
C3
C3
E3
FF
FF
7B
07
7F
7C
ENDCHAR
STARTCHAR h
ENCODING 104
SWIDTH 604 0
DWIDTH 10 0
BBX 8 13 1 0
BITMAP
C0
E0
E0
E0
EE
FF
E7
E3
E3
E3
E3
E3
C3
ENDCHAR
STARTCHAR i
ENCODING 105
SWIDTH 280 0
DWIDTH 5 0
BBX 3 13 1 0
BITMAP
E0
E0
C0
00
C0
E0
E0
E0
E0
E0
E0
E0
C0
ENDCHAR
STARTCHAR j
ENCODING 106
SWIDTH 292 0
DWIDTH 5 0
BBX 5 16 -1 -3
BITMAP
38
38
18
00
18
38
38
38
38
38
38
38
38
38
F8
F0
ENDCHAR
STARTCHAR k
ENCODING 107
SWIDTH 550 0
DWIDTH 9 0
BBX 8 13 1 0
BITMAP
C0
E0
E0
E0
E2
E7
EE
FC
FC
FC
EE
E7
C2
ENDCHAR
STARTCHAR l
ENCODING 108
SWIDTH 280 0
DWIDTH 5 0
BBX 3 13 1 0
BITMAP
C0
E0
E0
E0
E0
E0
E0
E0
E0
E0
E0
E0
C0
ENDCHAR
STARTCHAR m
ENCODING 109
SWIDTH 936 0
DWIDTH 16 0
BBX 14 9 1 0
BITMAP
CE78
FFFC
E79C
E31C
E31C
E31C
E31C
E31C
C30C
ENDCHAR
STARTCHAR n
ENCODING 110
SWIDTH 600 0
DWIDTH 10 0
BBX 8 9 1 0
BITMAP
CE
FF
E7
E3
E3
E3
E3
E3
C3
ENDCHAR
STARTCHAR o
ENCODING 111
SWIDTH 616 0
DWIDTH 10 0
BBX 9 9 1 0
BITMAP
3E00
7F00
E300
C380
C380
C380
E300
7F00
3E00
ENDCHAR
STARTCHAR p
ENCODING 112
SWIDTH 624 0
DWIDTH 11 0
BBX 9 12 1 -3
BITMAP
CE00
FF00
E380
E380
E380
E380
E380
FF00
FE00
E000
E000
C000
ENDCHAR
STARTCHAR q
ENCODING 113
SWIDTH 624 0
DWIDTH 11 0
BBX 9 12 1 -3
BITMAP
7B00
FF80
E380
C380
C380
C380
E380
FF80
7B80
0380
0380
0300
ENDCHAR
STARTCHAR r
ENCODING 114
SWIDTH 401 0
DWIDTH 7 0
BBX 6 9 1 0
BITMAP
DC
FC
E0
E0
E0
E0
E0
E0
C0
ENDCHAR
STARTCHAR s
ENCODING 115
SWIDTH 486 0
DWIDTH 8 0
BBX 7 9 1 0
BITMAP
7C
FC
C0
F0
7C
1E
86
FE
7C
ENDCHAR
STARTCHAR t
ENCODING 116
SWIDTH 405 0
DWIDTH 7 0
BBX 7 13 0 0
BITMAP
10
30
30
30
FC
FC
30
30
30
30
30
3E
1C
ENDCHAR
STARTCHAR u
ENCODING 117
SWIDTH 600 0
DWIDTH 10 0
BBX 8 9 1 0
BITMAP
C3
E3
E3
E3
E3
E3
E7
FB
7B
ENDCHAR
STARTCHAR v
ENCODING 118
SWIDTH 528 0
DWIDTH 9 0
BBX 9 9 0 0
BITMAP
4100
E380
6300
7700
7700
3600
3E00
1C00
1C00
ENDCHAR
STARTCHAR w
ENCODING 119
SWIDTH 853 0
DWIDTH 15 0
BBX 13 9 1 0
BITMAP
8610
C718
CF38
ED30
6DB0
69F0
78E0
38E0
30E0
ENDCHAR
STARTCHAR x
ENCODING 120
SWIDTH 545 0
DWIDTH 9 0
BBX 8 9 1 0
BITMAP
C2
E7
EE
7C
38
7C
EE
E7
C2
ENDCHAR
STARTCHAR y
ENCODING 121
SWIDTH 541 0
DWIDTH 9 0
BBX 9 12 0 -3
BITMAP
E180
6380
7300
3700
3E00
1E00
1C00
1C00
1800
3800
3000
3000
ENDCHAR
STARTCHAR z
ENCODING 122
SWIDTH 491 0
DWIDTH 8 0
BBX 7 9 1 0
BITMAP
FE
FE
1C
38
38
70
E0
FE
FE
ENDCHAR
STARTCHAR braceleft
ENCODING 123
SWIDTH 384 0
DWIDTH 7 0
BBX 6 15 0 -2
BITMAP
1C
3C
30
30
30
30
F0
F0
30
30
30
30
30
3C
1C
ENDCHAR
STARTCHAR bar
ENCODING 124
SWIDTH 222 0
DWIDTH 4 0
BBX 2 15 1 -2
BITMAP
C0
C0
C0
C0
C0
C0
C0
C0
C0
C0
C0
C0
C0
C0
C0
ENDCHAR
STARTCHAR braceright
ENCODING 125
SWIDTH 384 0
DWIDTH 7 0
BBX 7 15 0 -2
BITMAP
F0
F0
38
38
38
38
3C
0E
3C
38
38
38
38
F0
F0
ENDCHAR
STARTCHAR asciitilde
ENCODING 126
SWIDTH 628 0
DWIDTH 11 0
BBX 7 3 2 10
BITMAP
66
FC
8C
ENDCHAR
STARTCHAR uni00A0
ENCODING 160
SWIDTH 316 0
DWIDTH 5 0
BBX 1 1 0 0
BITMAP
00
ENDCHAR
STARTCHAR exclamdown
ENCODING 161
SWIDTH 378 0
DWIDTH 6 0
BBX 3 13 2 -4
BITMAP
C0
E0
C0
00
40
C0
C0
C0
E0
E0
E0
E0
E0
ENDCHAR
STARTCHAR cent
ENCODING 162
SWIDTH 519 0
DWIDTH 9 0
BBX 7 13 1 -2
BITMAP
18
18
3C
7E
E2
C0
C0
E0
E2
7E
3C
18
18
ENDCHAR
STARTCHAR sterling
ENCODING 163
SWIDTH 683 0
DWIDTH 12 0
BBX 9 13 1 0
BITMAP
1F80
3F00
3000
7000
7000
FE00
FE00
7000
7000
7000
7000
FF80
FF80
ENDCHAR
STARTCHAR currency
ENCODING 164
SWIDTH 613 0
DWIDTH 10 0
BBX 7 8 2 1
BITMAP
BA
FE
C4
82
82
86
C4
FE
ENDCHAR
STARTCHAR yen
ENCODING 165
SWIDTH 652 0
DWIDTH 11 0
BBX 9 12 1 0
BITMAP
C180
E380
E380
7700
7F00
3E00
FF80
FF80
FF80
FF80
1C00
1C00
ENDCHAR
STARTCHAR brokenbar
ENCODING 166
SWIDTH 222 0
DWIDTH 4 0
BBX 2 16 1 -2
BITMAP
C0
C0
C0
C0
C0
C0
C0
00
00
C0
C0
C0
C0
C0
C0
C0
ENDCHAR
STARTCHAR section
ENCODING 167
SWIDTH 633 0
DWIDTH 11 0
BBX 7 13 2 0
BITMAP
7C
FE
E0
F0
7C
EE
C6
EE
78
1E
0E
FE
F8
ENDCHAR
STARTCHAR dieresis
ENCODING 168
SWIDTH 277 0
DWIDTH 5 0
BBX 7 3 -1 10
BITMAP
4C
EE
4C
ENDCHAR
STARTCHAR copyright
ENCODING 169
SWIDTH 845 0
DWIDTH 14 0
BBX 12 13 1 0
BITMAP
0F80
3FC0
7060
67B0
C810
D810
D010
D810
C810
67B0
7060
3FC0
0F80
ENDCHAR
STARTCHAR ordfeminine
ENCODING 170
SWIDTH 547 0
DWIDTH 9 0
BBX 6 7 1 6
BITMAP
78
7C
0C
7C
CC
CC
7C
ENDCHAR
STARTCHAR guillemotleft
ENCODING 171
SWIDTH 604 0
DWIDTH 10 0
BBX 8 9 1 0
BITMAP
33
33
67
E6
EE
E6
67
33
33
ENDCHAR
STARTCHAR logicalnot
ENCODING 172
SWIDTH 628 0
DWIDTH 11 0
BBX 9 5 1 3
BITMAP
FF00
FF80
0180
0180
0180
ENDCHAR
STARTCHAR uni00AD
ENCODING 173
SWIDTH 386 0
DWIDTH 7 0
BBX 6 2 0 4
BITMAP
7C
FC
ENDCHAR
STARTCHAR registered
ENCODING 174
SWIDTH 849 0
DWIDTH 14 0
BBX 12 13 1 0
BITMAP
0F80
3FC0
7060
6FB0
C890
C890
8F90
CB10
C910
68B0
7060
3FC0
0F80
ENDCHAR
STARTCHAR macron
ENCODING 175
SWIDTH 277 0
DWIDTH 5 0
BBX 7 2 -1 10
BITMAP
FC
FE
ENDCHAR
STARTCHAR degree
ENCODING 176
SWIDTH 399 0
DWIDTH 7 0
BBX 5 5 1 8
BITMAP
70
98
88
98
70
ENDCHAR
STARTCHAR plusminus
ENCODING 177
SWIDTH 628 0
DWIDTH 11 0
BBX 9 9 1 0
BITMAP
0800
1800
FF00
FF80
1800
0800
0000
FF00
FF80
ENDCHAR
STARTCHAR uni00B2
ENCODING 178
SWIDTH 373 0
DWIDTH 6 0
BBX 5 8 1 5
BITMAP
F0
F8
10
10
20
40
F0
F8
ENDCHAR
STARTCHAR uni00B3
ENCODING 179
SWIDTH 415 0
DWIDTH 7 0
BBX 5 8 1 5
BITMAP
70
F8
18
18
70
08
F8
70
ENDCHAR
STARTCHAR acute
ENCODING 180
SWIDTH 277 0
DWIDTH 5 0
BBX 4 5 0 10
BITMAP
10
30
30
60
C0
ENDCHAR
STARTCHAR mu
ENCODING 181
SWIDTH 604 0
DWIDTH 10 0
BBX 8 12 1 -3
BITMAP
C3
E3
E3
E3
E3
E3
E7
FB
FB
E0
E0
C0
ENDCHAR
STARTCHAR paragraph
ENCODING 182
SWIDTH 634 0
DWIDTH 11 0
BBX 8 14 1 -1
BITMAP
7F
FF
FB
FB
FB
7B
3B
1B
1B
1B
1B
1B
1B
19
ENDCHAR
STARTCHAR periodcentered
ENCODING 183
SWIDTH 316 0
DWIDTH 5 0
BBX 3 3 1 3
BITMAP
60
E0
60
ENDCHAR
STARTCHAR cedilla
ENCODING 184
SWIDTH 277 0
DWIDTH 5 0
BBX 4 4 0 -4
BITMAP
20
70
10
F0
ENDCHAR
STARTCHAR uni00B9
ENCODING 185
SWIDTH 348 0
DWIDTH 6 0
BBX 3 7 1 6
BITMAP
20
E0
20
20
20
20
20
ENDCHAR
STARTCHAR ordmasculine
ENCODING 186
SWIDTH 501 0
DWIDTH 9 0
BBX 7 7 1 6
BITMAP
78
FC
CE
C6
CE
FC
78
ENDCHAR
STARTCHAR guillemotright
ENCODING 187
SWIDTH 604 0
DWIDTH 10 0
BBX 8 9 1 0
BITMAP
CC
CE
66
77
33
77
66
EE
CC
ENDCHAR
STARTCHAR onequarter
ENCODING 188
SWIDTH 847 0
DWIDTH 14 0
BBX 13 13 1 0
BITMAP
2180
E100
A300
2300
2200
2600
2620
0470
0CB0
0CB0
09F8
1830
1820
ENDCHAR
STARTCHAR onehalf
ENCODING 189
SWIDTH 859 0
DWIDTH 15 0
BBX 13 13 1 0
BITMAP
6100
E100
2300
2300
2200
26F0
26F0
0418
0C10
0C30
0860
18C0
18F8
ENDCHAR
STARTCHAR threequarters
ENCODING 190
SWIDTH 905 0
DWIDTH 15 0
BBX 13 13 1 0
BITMAP
E080
F080
1180
6180
1100
1300
F330
E630
0650
0490
0CF8
0C10
0810
ENDCHAR
STARTCHAR questiondown
ENCODING 191
SWIDTH 519 0
DWIDTH 9 0
BBX 7 13 1 -4
BITMAP
18
1C
18
08
1C
18
78
F0
E0
E0
FE
7E
3E
ENDCHAR
STARTCHAR Agrave
ENCODING 192
SWIDTH 726 0
DWIDTH 12 0
BBX 12 18 0 0
BITMAP
1000
3800
1800
0C00
0400
0700
0F00
0F80
1F80
1D80
19C0
39C0
38E0
7FE0
7FE0
7070
E070
6020
ENDCHAR
STARTCHAR Aacute
ENCODING 193
SWIDTH 726 0
DWIDTH 12 0
BBX 12 18 0 0
BITMAP
0080
0180
0180
0300
0600
0700
0F00
0F80
1F80
1D80
19C0
39C0
38E0
7FE0
7FE0
7070
E070
6020
ENDCHAR
STARTCHAR Acircumflex
ENCODING 194
SWIDTH 726 0
DWIDTH 12 0
BBX 12 17 0 0
BITMAP
0600
0700
0D80
0880
0700
0F00
0F80
1F80
1D80
19C0
39C0
38E0
7FE0
7FE0
7070
E070
6020
ENDCHAR
STARTCHAR Atilde
ENCODING 195
SWIDTH 726 0
DWIDTH 12 0
BBX 12 16 0 0
BITMAP
0C80
1F80
1980
0700
0F00
0F80
1F80
1D80
19C0
39C0
38E0
7FE0
7FE0
7070
E070
6020
ENDCHAR
STARTCHAR Adieresis
ENCODING 196
SWIDTH 726 0
DWIDTH 12 0
BBX 12 16 0 0
BITMAP
0980
1DC0
0980
0700
0F00
0F80
1F80
1D80
19C0
39C0
38E0
7FE0
7FE0
7070
E070
6020
ENDCHAR
STARTCHAR Aring
ENCODING 197
SWIDTH 726 0
DWIDTH 12 0
BBX 12 17 0 0
BITMAP
0700
0D00
0D00
0700
0700
0F00
0F80
1F80
1D80
19C0
39C0
38E0
7FE0
7FE0
7070
E070
6020
ENDCHAR
STARTCHAR AE
ENCODING 198
SWIDTH 972 0
DWIDTH 17 0
BBX 15 13 1 0
BITMAP
03FE
07FE
0DC0
0DC0
1DC0
19C0
39FE
30FE
7FE0
FFE0
E0E0
C0FE
C07E
ENDCHAR
STARTCHAR Ccedilla
ENCODING 199
SWIDTH 684 0
DWIDTH 12 0
BBX 10 17 1 -4
BITMAP
1F80
3FC0
7FC0
F000
E000
E000
E000
E000
E000
F040
7FC0
3FC0
1F00
0400
0E00
0200
1E00
ENDCHAR
STARTCHAR Egrave
ENCODING 200
SWIDTH 609 0
DWIDTH 10 0
BBX 9 18 1 0
BITMAP
2000
7000
3000
1800
0800
7F80
FF00
E000
E000
E000
E000
FF00
FF00
E000
E000
E000
FF80
7F80
ENDCHAR
STARTCHAR Eacute
ENCODING 201
SWIDTH 609 0
DWIDTH 10 0
BBX 9 18 1 0
BITMAP
0100
0300
0300
0600
0C00
7F80
FF00
E000
E000
E000
E000
FF00
FF00
E000
E000
E000
FF80
7F80
ENDCHAR
STARTCHAR Ecircumflex
ENCODING 202
SWIDTH 609 0
DWIDTH 10 0
BBX 9 17 1 0
BITMAP
1800
1C00
3600
2200
7F80
FF00
E000
E000
E000
E000
FF00
FF00
E000
E000
E000
FF80
7F80
ENDCHAR
STARTCHAR Edieresis
ENCODING 203
SWIDTH 609 0
DWIDTH 10 0
BBX 9 16 1 0
BITMAP
2600
7700
2600
7F80
FF00
E000
E000
E000
E000
FF00
FF00
E000
E000
E000
FF80
7F80
ENDCHAR
STARTCHAR Igrave
ENCODING 204
SWIDTH 335 0
DWIDTH 6 0
BBX 5 18 -1 0
BITMAP
40
E0
60
30
10
18
38
38
38
38
38
38
38
38
38
38
38
18
ENDCHAR
STARTCHAR Iacute
ENCODING 205
SWIDTH 335 0
DWIDTH 6 0
BBX 5 18 1 0
BITMAP
08
18
18
30
60
60
E0
E0
E0
E0
E0
E0
E0
E0
E0
E0
E0
60
ENDCHAR
STARTCHAR Icircumflex
ENCODING 206
SWIDTH 335 0
DWIDTH 6 0
BBX 5 17 0 0
BITMAP
60
70
D8
88
30
70
70
70
70
70
70
70
70
70
70
70
30
ENDCHAR
STARTCHAR Idieresis
ENCODING 207
SWIDTH 335 0
DWIDTH 6 0
BBX 7 16 -1 0
BITMAP
4C
EE
4C
18
38
38
38
38
38
38
38
38
38
38
38
18
ENDCHAR
STARTCHAR Eth
ENCODING 208
SWIDTH 753 0
DWIDTH 13 0
BBX 12 13 0 0
BITMAP
3F00
7FC0
70E0
70E0
7070
7C70
FC70
7070
7070
70F0
70E0
7FC0
3F00
ENDCHAR
STARTCHAR Ntilde
ENCODING 209
SWIDTH 785 0
DWIDTH 13 0
BBX 11 16 1 0
BITMAP
0C80
1F80
1980
6060
F060
F060
F860
FC60
EC60
EE60
E760
E3E0
E3E0
E1E0
E0E0
6060
ENDCHAR
STARTCHAR Ograve
ENCODING 210
SWIDTH 797 0
DWIDTH 14 0
BBX 12 18 1 0
BITMAP
1000
3800
1800
0C00
0400
1F80
7FC0
70E0
E0E0
E0F0
E0F0
E070
E0F0
E0F0
E0E0
70E0
7FC0
1F80
ENDCHAR
STARTCHAR Oacute
ENCODING 211
SWIDTH 797 0
DWIDTH 14 0
BBX 12 18 1 0
BITMAP
0080
0180
0180
0300
0600
1F80
7FC0
70E0
E0E0
E0F0
E0F0
E070
E0F0
E0F0
E0E0
70E0
7FC0
1F80
ENDCHAR
STARTCHAR Ocircumflex
ENCODING 212
SWIDTH 797 0
DWIDTH 14 0
BBX 12 17 1 0
BITMAP
0C00
0E00
1B00
1100
1F80
7FC0
70E0
E0E0
E0F0
E0F0
E070
E0F0
E0F0
E0E0
70E0
7FC0
1F80
ENDCHAR
STARTCHAR Otilde
ENCODING 213
SWIDTH 797 0
DWIDTH 14 0
BBX 12 16 1 0
BITMAP
1900
3F00
3300
1F80
7FC0
70E0
E0E0
E0F0
E0F0
E070
E0F0
E0F0
E0E0
70E0
7FC0
1F80
ENDCHAR
STARTCHAR Odieresis
ENCODING 214
SWIDTH 797 0
DWIDTH 14 0
BBX 12 16 1 0
BITMAP
1300
3B80
1300
1F80
7FC0
70E0
E0E0
E0F0
E0F0
E070
E0F0
E0F0
E0E0
70E0
7FC0
1F80
ENDCHAR
STARTCHAR multiply
ENCODING 215
SWIDTH 628 0
DWIDTH 11 0
BBX 7 7 2 1
BITMAP
C6
EC
7C
38
7C
EC
C6
ENDCHAR
STARTCHAR Oslash
ENCODING 216
SWIDTH 787 0
DWIDTH 13 0
BBX 12 16 1 -1
BITMAP
0020
0060
1FC0
7FC0
71E0
E1E0
E3F0
E2F0
E670
ECF0
ECF0
F8E0
70E0
7FC0
7F80
6000
ENDCHAR
STARTCHAR Ugrave
ENCODING 217
SWIDTH 746 0
DWIDTH 13 0
BBX 11 18 1 0
BITMAP
1000
3800
1800
0C00
0400
60C0
E0E0
E1E0
E1E0
E1E0
E1E0
E1E0
E1E0
E1E0
E1C0
71C0
7F80
1F00
ENDCHAR
STARTCHAR Uacute
ENCODING 218
SWIDTH 746 0
DWIDTH 13 0
BBX 11 18 1 0
BITMAP
0100
0300
0300
0600
0C00
60C0
E0E0
E1E0
E1E0
E1E0
E1E0
E1E0
E1E0
E1E0
E1C0
71C0
7F80
1F00
ENDCHAR
STARTCHAR Ucircumflex
ENCODING 219
SWIDTH 746 0
DWIDTH 13 0
BBX 11 17 1 0
BITMAP
0C00
0E00
1B00
1100
60C0
E0E0
E1E0
E1E0
E1E0
E1E0
E1E0
E1E0
E1E0
E1C0
71C0
7F80
1F00
ENDCHAR
STARTCHAR Udieresis
ENCODING 220
SWIDTH 746 0
DWIDTH 13 0
BBX 11 16 1 0
BITMAP
1300
3B80
1300
60C0
E0E0
E1E0
E1E0
E1E0
E1E0
E1E0
E1E0
E1E0
E1C0
71C0
7F80
1F00
ENDCHAR
STARTCHAR Yacute
ENCODING 221
SWIDTH 648 0
DWIDTH 11 0
BBX 9 18 1 0
BITMAP
0100
0300
0300
0600
0C00
0000
C180
E380
E380
7700
7F00
3E00
1C00
1C00
1C00
1C00
1C00
1C00
ENDCHAR
STARTCHAR Thorn
ENCODING 222
SWIDTH 678 0
DWIDTH 12 0
BBX 10 13 1 0
BITMAP
6000
E000
FF00
FF80
E1C0
E1C0
E1C0
E1C0
FF80
FF00
E000
E000
6000
ENDCHAR
STARTCHAR germandbls
ENCODING 223
SWIDTH 687 0
DWIDTH 12 0
BBX 10 13 1 0
BITMAP
3E00
7F00
E380
E380
E700
EE00
EE00
E780
E1C0
E0C0
E8C0
EFC0
C780
ENDCHAR
STARTCHAR agrave
ENCODING 224
SWIDTH 545 0
DWIDTH 9 0
BBX 7 15 1 0
BITMAP
40
E0
60
30
10
00
7C
FE
06
3E
FE
C6
C6
FE
76
ENDCHAR
STARTCHAR aacute
ENCODING 225
SWIDTH 545 0
DWIDTH 9 0
BBX 7 15 1 0
BITMAP
02
06
06
0C
18
00
7C
FE
06
3E
FE
C6
C6
FE
76
ENDCHAR
STARTCHAR acircumflex
ENCODING 226
SWIDTH 545 0
DWIDTH 9 0
BBX 7 14 1 0
BITMAP
30
38
6C
44
00
7C
FE
06
3E
FE
C6
C6
FE
76
ENDCHAR
STARTCHAR atilde
ENCODING 227
SWIDTH 545 0
DWIDTH 9 0
BBX 7 13 1 0
BITMAP
64
FC
CC
00
7C
FE
06
3E
FE
C6
C6
FE
76
ENDCHAR
STARTCHAR adieresis
ENCODING 228
SWIDTH 545 0
DWIDTH 9 0
BBX 7 13 1 0
BITMAP
4C
EE
4C
00
7C
FE
06
3E
FE
C6
C6
FE
76
ENDCHAR
STARTCHAR aring
ENCODING 229
SWIDTH 545 0
DWIDTH 9 0
BBX 7 14 1 0
BITMAP
38
68
68
38
00
7C
FE
06
3E
FE
C6
C6
FE
76
ENDCHAR
STARTCHAR ae
ENCODING 230
SWIDTH 865 0
DWIDTH 15 0
BBX 14 9 0 0
BITMAP
3EF0
7FF8
039C
030C
3FFC
6300
E380
7FFC
7CF8
ENDCHAR
STARTCHAR ccedilla
ENCODING 231
SWIDTH 509 0
DWIDTH 9 0
BBX 7 13 1 -4
BITMAP
3C
7E
E0
C0
C0
C0
E0
7E
3E
08
1C
04
3C
ENDCHAR
STARTCHAR egrave
ENCODING 232
SWIDTH 562 0
DWIDTH 10 0
BBX 8 15 1 0
BITMAP
40
E0
60
30
10
00
3C
7E
E3
FF
FF
C0
E2
7F
3C
ENDCHAR
STARTCHAR eacute
ENCODING 233
SWIDTH 562 0
DWIDTH 10 0
BBX 8 15 1 0
BITMAP
02
06
06
0C
18
00
3C
7E
E3
FF
FF
C0
E2
7F
3C
ENDCHAR
STARTCHAR ecircumflex
ENCODING 234
SWIDTH 562 0
DWIDTH 10 0
BBX 8 14 1 0
BITMAP
18
1C
36
22
00
3C
7E
E3
FF
FF
C0
E2
7F
3C
ENDCHAR
STARTCHAR edieresis
ENCODING 235
SWIDTH 562 0
DWIDTH 10 0
BBX 8 13 1 0
BITMAP
26
77
26
00
3C
7E
E3
FF
FF
C0
E2
7F
3C
ENDCHAR
STARTCHAR igrave
ENCODING 236
SWIDTH 270 0
DWIDTH 5 0
BBX 5 15 -1 0
BITMAP
40
E0
60
30
10
00
30
38
38
38
38
38
38
38
30
ENDCHAR
STARTCHAR iacute
ENCODING 237
SWIDTH 270 0
DWIDTH 5 0
BBX 4 15 1 0
BITMAP
10
30
30
60
C0
00
C0
E0
E0
E0
E0
E0
E0
E0
C0
ENDCHAR
STARTCHAR icircumflex
ENCODING 238
SWIDTH 270 0
DWIDTH 5 0
BBX 5 14 0 0
BITMAP
60
70
D8
88
00
60
70
70
70
70
70
70
70
60
ENDCHAR
STARTCHAR idieresis
ENCODING 239
SWIDTH 270 0
DWIDTH 5 0
BBX 7 13 -1 0
BITMAP
4C
EE
4C
00
30
38
38
38
38
38
38
38
30
ENDCHAR
STARTCHAR eth
ENCODING 240
SWIDTH 633 0
DWIDTH 11 0
BBX 10 14 1 0
BITMAP
0600
0E00
0700
1FC0
0380
0380
7B80
FF80
E380
C380
C380
E300
7F00
3E00
ENDCHAR
STARTCHAR ntilde
ENCODING 241
SWIDTH 600 0
DWIDTH 10 0
BBX 8 13 1 0
BITMAP
32
7E
66
00
CE
FF
E7
E3
E3
E3
E3
E3
C3
ENDCHAR
STARTCHAR ograve
ENCODING 242
SWIDTH 616 0
DWIDTH 10 0
BBX 9 15 1 0
BITMAP
2000
7000
3000
1800
0800
0000
3E00
7F00
E300
C380
C380
C380
E300
7F00
3E00
ENDCHAR
STARTCHAR oacute
ENCODING 243
SWIDTH 616 0
DWIDTH 10 0
BBX 9 15 1 0
BITMAP
0200
0600
0600
0C00
1800
0000
3E00
7F00
E300
C380
C380
C380
E300
7F00
3E00
ENDCHAR
STARTCHAR ocircumflex
ENCODING 244
SWIDTH 616 0
DWIDTH 10 0
BBX 9 14 1 0
BITMAP
1800
1C00
3600
2200
0000
3E00
7F00
E300
C380
C380
C380
E300
7F00
3E00
ENDCHAR
STARTCHAR otilde
ENCODING 245
SWIDTH 616 0
DWIDTH 10 0
BBX 9 13 1 0
BITMAP
3200
7E00
6600
0000
3E00
7F00
E300
C380
C380
C380
E300
7F00
3E00
ENDCHAR
STARTCHAR odieresis
ENCODING 246
SWIDTH 616 0
DWIDTH 10 0
BBX 9 13 1 0
BITMAP
2600
7700
2600
0000
3E00
7F00
E300
C380
C380
C380
E300
7F00
3E00
ENDCHAR
STARTCHAR divide
ENCODING 247
SWIDTH 628 0
DWIDTH 11 0
BBX 9 10 1 0
BITMAP
1800
1C00
0000
0000
FF80
FF80
0000
0000
1C00
1800
ENDCHAR
STARTCHAR oslash
ENCODING 248
SWIDTH 616 0
DWIDTH 10 0
BBX 9 12 1 -1
BITMAP
0100
0300
3E00
7F00
E700
CF80
CB80
D380
F300
7F00
7E00
4000
ENDCHAR
STARTCHAR ugrave
ENCODING 249
SWIDTH 600 0
DWIDTH 10 0
BBX 8 15 1 0
BITMAP
40
E0
60
30
10
00
C3
E3
E3
E3
E3
E3
E7
FB
7B
ENDCHAR
STARTCHAR uacute
ENCODING 250
SWIDTH 600 0
DWIDTH 10 0
BBX 8 15 1 0
BITMAP
02
06
06
0C
18
00
C3
E3
E3
E3
E3
E3
E7
FB
7B
ENDCHAR
STARTCHAR ucircumflex
ENCODING 251
SWIDTH 600 0
DWIDTH 10 0
BBX 8 14 1 0
BITMAP
18
1C
36
22
00
C3
E3
E3
E3
E3
E3
E7
FB
7B
ENDCHAR
STARTCHAR udieresis
ENCODING 252
SWIDTH 600 0
DWIDTH 10 0
BBX 8 13 1 0
BITMAP
26
77
26
00
C3
E3
E3
E3
E3
E3
E7
FB
7B
ENDCHAR
STARTCHAR yacute
ENCODING 253
SWIDTH 541 0
DWIDTH 9 0
BBX 9 18 0 -3
BITMAP
0100
0300
0300
0600
0C00
0000
E180
6380
7300
3700
3E00
1E00
1C00
1C00
1800
3800
3000
3000
ENDCHAR
STARTCHAR thorn
ENCODING 254
SWIDTH 613 0
DWIDTH 10 0
BBX 9 16 1 -3
BITMAP
C000
C000
E000
E000
EE00
FF00
E380
E380
E380
E380
E380
FF00
EE00
E000
E000
C000
ENDCHAR
STARTCHAR ydieresis
ENCODING 255
SWIDTH 541 0
DWIDTH 9 0
BBX 9 16 0 -3
BITMAP
2600
7700
2600
0000
E180
6380
7300
3700
3E00
1E00
1C00
1C00
1800
3800
3000
3000
ENDCHAR
STARTCHAR Amacron
ENCODING 256
SWIDTH 726 0
DWIDTH 12 0
BBX 12 16 0 0
BITMAP
1F80
1FC0
0000
0700
0F00
0F80
1F80
1D80
19C0
39C0
38E0
7FE0
7FE0
7070
E070
6020
ENDCHAR
STARTCHAR amacron
ENCODING 257
SWIDTH 545 0
DWIDTH 9 0
BBX 7 12 1 0
BITMAP
FC
FE
00
7C
FE
06
3E
FE
C6
C6
FE
76
ENDCHAR
STARTCHAR Abreve
ENCODING 258
SWIDTH 726 0
DWIDTH 12 0
BBX 12 16 0 0
BITMAP
0880
0F80
0700
0700
0F00
0F80
1F80
1D80
19C0
39C0
38E0
7FE0
7FE0
7070
E070
6020
ENDCHAR
STARTCHAR abreve
ENCODING 259
SWIDTH 545 0
DWIDTH 9 0
BBX 7 13 1 0
BITMAP
44
7C
38
00
7C
FE
06
3E
FE
C6
C6
FE
76
ENDCHAR
STARTCHAR Aogonek
ENCODING 260
SWIDTH 726 0
DWIDTH 12 0
BBX 12 18 0 -5
BITMAP
0700
0F00
0F80
1F80
1D80
19C0
39C0
38E0
7FE0
7FE0
7070
E070
6020
0040
0040
00C0
0070
0070
ENDCHAR
STARTCHAR aogonek
ENCODING 261
SWIDTH 545 0
DWIDTH 9 0
BBX 8 14 1 -5
BITMAP
7C
FE
06
3E
FE
C6
C6
FE
76
04
04
0C
07
07
ENDCHAR
STARTCHAR Cacute
ENCODING 262
SWIDTH 684 0
DWIDTH 12 0
BBX 10 18 1 0
BITMAP
0080
0180
0180
0300
0600
1F80
3FC0
7FC0
F000
E000
E000
E000
E000
E000
F040
7FC0
3FC0
1F00
ENDCHAR
STARTCHAR cacute
ENCODING 263
SWIDTH 509 0
DWIDTH 9 0
BBX 7 15 1 0
BITMAP
02
06
06
0C
18
00
3C
7E
E0
C0
C0
C0
E0
7E
3E
ENDCHAR
STARTCHAR Ccircumflex
ENCODING 264
SWIDTH 684 0
DWIDTH 12 0
BBX 10 17 1 0
BITMAP
0C00
0E00
1B00
1100
1F80
3FC0
7FC0
F000
E000
E000
E000
E000
E000
F040
7FC0
3FC0
1F00
ENDCHAR
STARTCHAR ccircumflex
ENCODING 265
SWIDTH 509 0
DWIDTH 9 0
BBX 7 14 1 0
BITMAP
18
1C
36
22
00
3C
7E
E0
C0
C0
C0
E0
7E
3E
ENDCHAR
STARTCHAR Cdotaccent
ENCODING 266
SWIDTH 684 0
DWIDTH 12 0
BBX 10 16 1 0
BITMAP
0600
0E00
0600
1F80
3FC0
7FC0
F000
E000
E000
E000
E000
E000
F040
7FC0
3FC0
1F00
ENDCHAR
STARTCHAR cdotaccent
ENCODING 267
SWIDTH 509 0
DWIDTH 9 0
BBX 7 13 1 0
BITMAP
18
38
18
00
3C
7E
E0
C0
C0
C0
E0
7E
3E
ENDCHAR
STARTCHAR Ccaron
ENCODING 268
SWIDTH 684 0
DWIDTH 12 0
BBX 10 17 1 0
BITMAP
1880
0D80
0700
0600
1F80
3FC0
7FC0
F000
E000
E000
E000
E000
E000
F040
7FC0
3FC0
1F00
ENDCHAR
STARTCHAR ccaron
ENCODING 269
SWIDTH 509 0
DWIDTH 9 0
BBX 7 14 1 0
BITMAP
62
36
1C
18
00
3C
7E
E0
C0
C0
C0
E0
7E
3E
ENDCHAR
STARTCHAR Dcaron
ENCODING 270
SWIDTH 753 0
DWIDTH 13 0
BBX 11 17 1 0
BITMAP
3100
1B00
0E00
0C00
7E00
FF80
E1C0
E1C0
E0E0
E0E0
E0E0
E0E0
E0E0
E1E0
E1C0
FF80
7E00
ENDCHAR
STARTCHAR dcaron
ENCODING 271
SWIDTH 624 0
DWIDTH 11 0
BBX 13 14 1 0
BITMAP
0018
0338
03B0
03B0
03B0
7B80
FF80
E380
C380
C380
C380
E380
FF80
7B00
ENDCHAR
STARTCHAR Dcroat
ENCODING 272
SWIDTH 753 0
DWIDTH 13 0
BBX 12 13 0 0
BITMAP
3F00
7FC0
70E0
70E0
7070
7070
FC70
FC70
7070
70F0
70E0
7FC0
3F00
ENDCHAR
STARTCHAR dcroat
ENCODING 273
SWIDTH 624 0
DWIDTH 11 0
BBX 11 13 1 0
BITMAP
0300
0380
0FC0
0FE0
7B80
FF80
E380
C380
C380
C380
E380
FF80
7B00
ENDCHAR
STARTCHAR Emacron
ENCODING 274
SWIDTH 609 0
DWIDTH 10 0
BBX 9 16 1 0
BITMAP
7E00
7F00
0000
7F80
FF00
E000
E000
E000
E000
FF00
FF00
E000
E000
E000
FF80
7F80
ENDCHAR
STARTCHAR emacron
ENCODING 275
SWIDTH 562 0
DWIDTH 10 0
BBX 8 12 1 0
BITMAP
7E
7F
00
3C
7E
E3
FF
FF
C0
E2
7F
3C
ENDCHAR
STARTCHAR Ebreve
ENCODING 276
SWIDTH 609 0
DWIDTH 10 0
BBX 9 16 1 0
BITMAP
2200
3E00
1C00
7F80
FF00
E000
E000
E000
E000
FF00
FF00
E000
E000
E000
FF80
7F80
ENDCHAR
STARTCHAR ebreve
ENCODING 277
SWIDTH 562 0
DWIDTH 10 0
BBX 8 13 1 0
BITMAP
22
3E
1C
00
3C
7E
E3
FF
FF
C0
E2
7F
3C
ENDCHAR
STARTCHAR Edotaccent
ENCODING 278
SWIDTH 609 0
DWIDTH 10 0
BBX 9 16 1 0
BITMAP
0C00
1C00
0C00
7F80
FF00
E000
E000
E000
E000
FF00
FF00
E000
E000
E000
FF80
7F80
ENDCHAR
STARTCHAR edotaccent
ENCODING 279
SWIDTH 562 0
DWIDTH 10 0
BBX 8 13 1 0
BITMAP
18
38
18
00
3C
7E
E3
FF
FF
C0
E2
7F
3C
ENDCHAR
STARTCHAR Eogonek
ENCODING 280
SWIDTH 609 0
DWIDTH 10 0
BBX 9 18 1 -5
BITMAP
7F80
FF00
E000
E000
E000
E000
FF00
FF00
E000
E000
E000
FF80
7F80
0400
0400
0C00
0700
0700
ENDCHAR
STARTCHAR eogonek
ENCODING 281
SWIDTH 562 0
DWIDTH 10 0
BBX 8 14 1 -5
BITMAP
3C
7E
E3
FF
FF
C0
E2
7F
3C
06
04
0C
07
07
ENDCHAR
STARTCHAR Ecaron
ENCODING 282
SWIDTH 609 0
DWIDTH 10 0
BBX 9 17 1 0
BITMAP
6200
3600
1C00
1800
7F80
FF00
E000
E000
E000
E000
FF00
FF00
E000
E000
E000
FF80
7F80
ENDCHAR
STARTCHAR ecaron
ENCODING 283
SWIDTH 562 0
DWIDTH 10 0
BBX 8 14 1 0
BITMAP
62
36
1C
18
00
3C
7E
E3
FF
FF
C0
E2
7F
3C
ENDCHAR
STARTCHAR Gcircumflex
ENCODING 284
SWIDTH 746 0
DWIDTH 13 0
BBX 11 17 1 0
BITMAP
0C00
0E00
1B00
1100
1F80
3FE0
7040
F000
E000
E000
E3E0
E3E0
E0E0
F0E0
78E0
3FE0
1FC0
ENDCHAR
STARTCHAR gcircumflex
ENCODING 285
SWIDTH 617 0
DWIDTH 11 0
BBX 8 17 1 -3
BITMAP
18
1C
36
22
00
7B
FF
E3
C3
C3
E3
FF
FF
7B
07
7F
7C
ENDCHAR
STARTCHAR Gbreve
ENCODING 286
SWIDTH 746 0
DWIDTH 13 0
BBX 11 16 1 0
BITMAP
1100
1F00
0E00
1F80
3FE0
7040
F000
E000
E000
E3E0
E3E0
E0E0
F0E0
78E0
3FE0
1FC0
ENDCHAR
STARTCHAR gbreve
ENCODING 287
SWIDTH 617 0
DWIDTH 11 0
BBX 8 16 1 -3
BITMAP
22
3E
1C
00
7B
FF
E3
C3
C3
E3
FF
FF
7B
07
7F
7C
ENDCHAR
STARTCHAR Gdotaccent
ENCODING 288
SWIDTH 746 0
DWIDTH 13 0
BBX 11 16 1 0
BITMAP
0600
0E00
0600
1F80
3FE0
7040
F000
E000
E000
E3E0
E3E0
E0E0
F0E0
78E0
3FE0
1FC0
ENDCHAR
STARTCHAR gdotaccent
ENCODING 289
SWIDTH 617 0
DWIDTH 11 0
BBX 8 16 1 -3
BITMAP
18
38
18
00
7B
FF
E3
C3
C3
E3
FF
FF
7B
07
7F
7C
ENDCHAR
STARTCHAR uni0122
ENCODING 290
SWIDTH 746 0
DWIDTH 13 0
BBX 11 19 1 -6
BITMAP
1F80
3FE0
7040
F000
E000
E000
E3E0
E3E0
E0E0
F0E0
78E0
3FE0
1FC0
0000
0600
0E00
0C00
0C00
0C00
ENDCHAR
STARTCHAR uni0123
ENCODING 291
SWIDTH 617 0
DWIDTH 11 0
BBX 8 18 1 -3
BITMAP
04
0C
0C
0C
1C
00
7B
FF
E3
C3
C3
E3
FF
FF
7B
07
7F
7C
ENDCHAR
STARTCHAR Hcircumflex
ENCODING 292
SWIDTH 760 0
DWIDTH 13 0
BBX 11 17 1 0
BITMAP
0C00
0E00
1B00
1100
60C0
E0E0
E0E0
E0E0
E0E0
FFE0
FFE0
FFE0
E0E0
E0E0
E0E0
E0E0
60C0
ENDCHAR
STARTCHAR hcircumflex
ENCODING 293
SWIDTH 604 0
DWIDTH 10 0
BBX 8 15 1 0
BITMAP
0C
0E
DB
F1
E0
E0
EE
FF
E7
E3
E3
E3
E3
E3
C3
ENDCHAR
STARTCHAR Hbar
ENCODING 294
SWIDTH 760 0
DWIDTH 13 0
BBX 13 13 0 0
BITMAP
3060
7070
7070
FFF8
7070
7FF0
7FF0
7FF0
7070
7070
7070
7070
3060
ENDCHAR
STARTCHAR hbar
ENCODING 295
SWIDTH 604 0
DWIDTH 10 0
BBX 8 13 1 0
BITMAP
C0
E0
E0
E0
EE
FF
E7
E3
E3
E3
E3
E3
C3
ENDCHAR
STARTCHAR Itilde
ENCODING 296
SWIDTH 335 0
DWIDTH 6 0
BBX 6 16 -1 0
BITMAP
64
FC
CC
18
38
38
38
38
38
38
38
38
38
38
38
18
ENDCHAR
STARTCHAR itilde
ENCODING 297
SWIDTH 270 0
DWIDTH 5 0
BBX 6 13 -1 0
BITMAP
64
FC
CC
00
30
38
38
38
38
38
38
38
30
ENDCHAR
STARTCHAR Imacron
ENCODING 298
SWIDTH 335 0
DWIDTH 6 0
BBX 7 16 -1 0
BITMAP
FC
FE
00
18
38
38
38
38
38
38
38
38
38
38
38
18
ENDCHAR
STARTCHAR imacron
ENCODING 299
SWIDTH 270 0
DWIDTH 5 0
BBX 7 12 -1 0
BITMAP
FC
FE
00
30
38
38
38
38
38
38
38
30
ENDCHAR
STARTCHAR Ibreve
ENCODING 300
SWIDTH 335 0
DWIDTH 6 0
BBX 5 16 0 0
BITMAP
88
F8
70
30
70
70
70
70
70
70
70
70
70
70
70
30
ENDCHAR
STARTCHAR ibreve
ENCODING 301
SWIDTH 270 0
DWIDTH 5 0
BBX 5 13 0 0
BITMAP
88
F8
70
00
60
70
70
70
70
70
70
70
60
ENDCHAR
STARTCHAR Iogonek
ENCODING 302
SWIDTH 335 0
DWIDTH 6 0
BBX 4 18 1 -5
BITMAP
60
E0
E0
E0
E0
E0
E0
E0
E0
E0
E0
E0
60
40
40
C0
70
70
ENDCHAR
STARTCHAR iogonek
ENCODING 303
SWIDTH 270 0
DWIDTH 5 0
BBX 4 18 0 -5
BITMAP
30
70
30
00
60
70
70
70
70
70
70
70
60
40
40
C0
70
70
ENDCHAR
STARTCHAR Idotaccent
ENCODING 304
SWIDTH 335 0
DWIDTH 6 0
BBX 3 16 1 0
BITMAP
60
E0
60
60
E0
E0
E0
E0
E0
E0
E0
E0
E0
E0
E0
60
ENDCHAR
STARTCHAR dotlessi
ENCODING 305
SWIDTH 270 0
DWIDTH 5 0
BBX 3 9 1 0
BITMAP
C0
E0
E0
E0
E0
E0
E0
E0
C0
ENDCHAR
STARTCHAR IJ
ENCODING 306
SWIDTH 907 0
DWIDTH 15 0
BBX 14 13 1 0
BITMAP
6018
E01C
E01C
E01C
E01C
E01C
E01C
E01C
E01C
E23C
E3F8
E3F8
61F0
ENDCHAR
STARTCHAR ij
ENCODING 307
SWIDTH 573 0
DWIDTH 10 0
BBX 8 16 1 -3
BITMAP
E7
E7
C3
00
C3
E7
E7
E7
E7
E7
E7
E7
C7
07
1F
1E
ENDCHAR
STARTCHAR Jcircumflex
ENCODING 308
SWIDTH 571 0
DWIDTH 10 0
BBX 9 17 1 0
BITMAP
0600
0700
0D80
0880
0600
0700
0700
0700
0700
0700
0700
0700
0700
8F00
FE00
FE00
7C00
ENDCHAR
STARTCHAR jcircumflex
ENCODING 309
SWIDTH 276 0
DWIDTH 5 0
BBX 6 17 -1 -3
BITMAP
30
38
6C
44
00
30
38
38
38
38
38
38
38
38
38
F0
F0
ENDCHAR
STARTCHAR uni0136
ENCODING 310
SWIDTH 692 0
DWIDTH 12 0
BBX 10 19 1 -6
BITMAP
60C0
E1C0
E3C0
E780
EF00
EE00
FE00
EF00
E700
E380
E3C0
E1C0
60C0
0000
0C00
1C00
1800
1800
1800
ENDCHAR
STARTCHAR uni0137
ENCODING 311
SWIDTH 550 0
DWIDTH 9 0
BBX 8 19 1 -6
BITMAP
C0
E0
E0
E0
E2
E7
EE
FC
FC
FC
EE
E7
C2
00
18
38
30
30
30
ENDCHAR
STARTCHAR kgreenlandic
ENCODING 312
SWIDTH 541 0
DWIDTH 9 0
BBX 8 9 1 0
BITMAP
C2
E7
EE
FC
FC
FC
EE
E7
C3
ENDCHAR
STARTCHAR Lacute
ENCODING 313
SWIDTH 580 0
DWIDTH 10 0
BBX 9 18 1 0
BITMAP
0400
0C00
0C00
1800
3000
6000
E000
E000
E000
E000
E000
E000
E000
E000
E000
E000
FF80
7F00
ENDCHAR
STARTCHAR lacute
ENCODING 314
SWIDTH 280 0
DWIDTH 5 0
BBX 4 18 1 0
BITMAP
10
30
30
60
C0
C0
E0
E0
E0
E0
E0
E0
E0
E0
E0
E0
E0
C0
ENDCHAR
STARTCHAR uni013B
ENCODING 315
SWIDTH 580 0
DWIDTH 10 0
BBX 9 19 1 -6
BITMAP
6000
E000
E000
E000
E000
E000
E000
E000
E000
E000
E000
FF80
7F00
0000
0C00
1C00
1800
1800
1800
ENDCHAR
STARTCHAR uni013C
ENCODING 316
SWIDTH 280 0
DWIDTH 5 0
BBX 4 19 0 -6
BITMAP
60
70
70
70
70
70
70
70
70
70
70
70
60
00
60
E0
C0
C0
C0
ENDCHAR
STARTCHAR Lcaron
ENCODING 317
SWIDTH 580 0
DWIDTH 10 0
BBX 9 14 1 0
BITMAP
0300
6700
E600
E600
E600
E000
E000
E000
E000
E000
E000
E000
FF80
7F00
ENDCHAR
STARTCHAR lcaron
ENCODING 318
SWIDTH 280 0
DWIDTH 5 0
BBX 7 14 1 0
BITMAP
06
CE
EC
EC
EC
E0
E0
E0
E0
E0
E0
E0
E0
C0
ENDCHAR
STARTCHAR Ldot
ENCODING 319
SWIDTH 580 0
DWIDTH 10 0
BBX 9 13 1 0
BITMAP
6000
E000
E000
E000
E000
E600
EE00
E600
E000
E000
E000
FF80
7F00
ENDCHAR
STARTCHAR ldot
ENCODING 320
SWIDTH 280 0
DWIDTH 5 0
BBX 7 13 1 0
BITMAP
C0
E0
E0
E0
E0
E6
EE
E6
E0
E0
E0
E0
C0
ENDCHAR
STARTCHAR Lslash
ENCODING 321
SWIDTH 584 0
DWIDTH 10 0
BBX 10 13 0 0
BITMAP
3000
7000
7000
7000
7400
7C00
7800
F000
F000
7000
7000
7FC0
3F80
ENDCHAR
STARTCHAR lslash
ENCODING 322
SWIDTH 374 0
DWIDTH 6 0
BBX 5 13 1 0
BITMAP
60
70
70
70
78
78
70
F0
F0
70
70
70
60
ENDCHAR
STARTCHAR Nacute
ENCODING 323
SWIDTH 785 0
DWIDTH 13 0
BBX 11 18 1 0
BITMAP
0080
0180
0180
0300
0600
6060
F060
F060
F860
FC60
EC60
EE60
E760
E3E0
E3E0
E1E0
E0E0
6060
ENDCHAR
STARTCHAR nacute
ENCODING 324
SWIDTH 600 0
DWIDTH 10 0
BBX 8 15 1 0
BITMAP
02
06
06
0C
18
00
CE
FF
E7
E3
E3
E3
E3
E3
C3
ENDCHAR
STARTCHAR uni0145
ENCODING 325
SWIDTH 785 0
DWIDTH 13 0
BBX 11 19 1 -6
BITMAP
6060
F060
F060
F860
FC60
EC60
EE60
E760
E3E0
E3E0
E1E0
E0E0
6060
0000
0600
0E00
0C00
0C00
0C00
ENDCHAR
STARTCHAR uni0146
ENCODING 326
SWIDTH 600 0
DWIDTH 10 0
BBX 8 15 1 -6
BITMAP
CE
FF
E7
E3
E3
E3
E3
E3
C3
00
18
38
30
30
30
ENDCHAR
STARTCHAR Ncaron
ENCODING 327
SWIDTH 785 0
DWIDTH 13 0
BBX 11 17 1 0
BITMAP
1880
0D80
0700
0600
6060
F060
F060
F860
FC60
EC60
EE60
E760
E3E0
E3E0
E1E0
E0E0
6060
ENDCHAR
STARTCHAR ncaron
ENCODING 328
SWIDTH 600 0
DWIDTH 10 0
BBX 8 14 1 0
BITMAP
62
36
1C
18
00
CE
FF
E7
E3
E3
E3
E3
E3
C3
ENDCHAR
STARTCHAR napostrophe
ENCODING 329
SWIDTH 600 0
DWIDTH 10 0
BBX 8 15 1 0
BITMAP
60
E0
C0
C0
C0
00
CE
FF
E7
E3
E3
E3
E3
E3
C3
ENDCHAR
STARTCHAR Eng
ENCODING 330
SWIDTH 785 0
DWIDTH 13 0
BBX 11 17 1 -4
BITMAP
6060
F060
F060
F860
FC60
FC60
EE60
E760
E760
E3E0
E1E0
E1E0
60E0
00E0
00E0
0FC0
0780
ENDCHAR
STARTCHAR eng
ENCODING 331
SWIDTH 604 0
DWIDTH 10 0
BBX 8 12 1 -3
BITMAP
CE
FF
E7
E3
E3
E3
E3
E3
C3
07
7F
3E
ENDCHAR
STARTCHAR Omacron
ENCODING 332
SWIDTH 797 0
DWIDTH 14 0
BBX 12 16 1 0
BITMAP
3F00
3F80
0000
1F80
7FC0
70E0
E0E0
E0F0
E0F0
E070
E0F0
E0F0
E0E0
70E0
7FC0
1F80
ENDCHAR
STARTCHAR omacron
ENCODING 333
SWIDTH 616 0
DWIDTH 10 0
BBX 9 12 1 0
BITMAP
7E00
7F00
0000
3E00
7F00
E300
C380
C380
C380
E300
7F00
3E00
ENDCHAR
STARTCHAR Obreve
ENCODING 334
SWIDTH 797 0
DWIDTH 14 0
BBX 12 16 1 0
BITMAP
1100
1F00
0E00
1F80
7FC0
70E0
E0E0
E0F0
E0F0
E070
E0F0
E0F0
E0E0
70E0
7FC0
1F80
ENDCHAR
STARTCHAR obreve
ENCODING 335
SWIDTH 616 0
DWIDTH 10 0
BBX 9 13 1 0
BITMAP
2200
3E00
1C00
0000
3E00
7F00
E300
C380
C380
C380
E300
7F00
3E00
ENDCHAR
STARTCHAR Ohungarumlaut
ENCODING 336
SWIDTH 797 0
DWIDTH 14 0
BBX 12 19 1 0
BITMAP
0440
06E0
0EC0
1980
1100
0000
1F80
7FC0
70E0
E0E0
E0F0
E0F0
E070
E0F0
E0F0
E0E0
70E0
7FC0
1F80
ENDCHAR
STARTCHAR ohungarumlaut
ENCODING 337
SWIDTH 616 0
DWIDTH 10 0
BBX 10 16 1 0
BITMAP
0880
0DC0
1D80
3300
2200
0000
0000
3E00
7F00
E300
C380
C380
C380
E300
7F00
3E00
ENDCHAR
STARTCHAR OE
ENCODING 338
SWIDTH 976 0
DWIDTH 17 0
BBX 15 13 1 0
BITMAP
1FFE
7FFE
71C0
E1C0
E1C0
E1FC
E1FC
E1C0
E1C0
E1C0
71C0
7FFE
1FFE
ENDCHAR
STARTCHAR oe
ENCODING 339
SWIDTH 918 0
DWIDTH 16 0
BBX 14 9 1 0
BITMAP
3CF0
7FF8
E71C
C3FC
C3FC
C300
E788
FFF8
3CF8
ENDCHAR
STARTCHAR Racute
ENCODING 340
SWIDTH 707 0
DWIDTH 12 0
BBX 10 18 1 0
BITMAP
0100
0300
0300
0600
0C00
7F00
FFC0
E1C0
E1C0
E1C0
E1C0
FF00
FF80
E1C0
E1C0
E1C0
E1C0
60C0
ENDCHAR
STARTCHAR racute
ENCODING 341
SWIDTH 401 0
DWIDTH 7 0
BBX 6 15 1 0
BITMAP
08
18
18
30
60
00
DC
FC
E0
E0
E0
E0
E0
E0
C0
ENDCHAR
STARTCHAR uni0156
ENCODING 342
SWIDTH 707 0
DWIDTH 12 0
BBX 10 19 1 -6
BITMAP
7F00
FFC0
E1C0
E1C0
E1C0
E1C0
FF00
FF80
E1C0
E1C0
E1C0
E1C0
60C0
0000
0C00
1C00
1800
1800
1800
ENDCHAR
STARTCHAR uni0157
ENCODING 343
SWIDTH 401 0
DWIDTH 7 0
BBX 7 15 0 -6
BITMAP
6E
7E
70
70
70
70
70
70
60
00
60
E0
C0
C0
C0
ENDCHAR
STARTCHAR Rcaron
ENCODING 344
SWIDTH 707 0
DWIDTH 12 0
BBX 10 17 1 0
BITMAP
3100
1B00
0E00
0C00
7F00
FFC0
E1C0
E1C0
E1C0
E1C0
FF00
FF80
E1C0
E1C0
E1C0
E1C0
60C0
ENDCHAR
STARTCHAR rcaron
ENCODING 345
SWIDTH 401 0
DWIDTH 7 0
BBX 6 14 1 0
BITMAP
88
D8
70
60
00
DC
FC
E0
E0
E0
E0
E0
E0
C0
ENDCHAR
STARTCHAR Sacute
ENCODING 346
SWIDTH 650 0
DWIDTH 11 0
BBX 10 18 1 0
BITMAP
0100
0300
0300
0600
0C00
3F00
7F80
E100
E000
F000
FE00
7F80
1F80
03C0
0180
4380
FF80
7E00
ENDCHAR
STARTCHAR sacute
ENCODING 347
SWIDTH 486 0
DWIDTH 8 0
BBX 7 15 1 0
BITMAP
04
0C
0C
18
30
00
7C
FC
C0
F0
7C
1E
86
FE
7C
ENDCHAR
STARTCHAR Scircumflex
ENCODING 348
SWIDTH 650 0
DWIDTH 11 0
BBX 10 17 1 0
BITMAP
1800
1C00
3600
2200
3F00
7F80
E100
E000
F000
FE00
7F80
1F80
03C0
0180
4380
FF80
7E00
ENDCHAR
STARTCHAR scircumflex
ENCODING 349
SWIDTH 486 0
DWIDTH 8 0
BBX 7 14 1 0
BITMAP
30
38
6C
44
00
7C
FC
C0
F0
7C
1E
86
FE
7C
ENDCHAR
STARTCHAR Scedilla
ENCODING 350
SWIDTH 650 0
DWIDTH 11 0
BBX 10 17 1 -4
BITMAP
3F00
7F80
E100
E000
F000
FE00
7F80
1F80
03C0
0180
4380
FF80
7E00
0800
1C00
0400
3C00
ENDCHAR
STARTCHAR scedilla
ENCODING 351
SWIDTH 486 0
DWIDTH 8 0
BBX 7 13 1 -4
BITMAP
7C
FC
C0
F0
7C
1E
86
FE
7C
10
38
08
78
ENDCHAR
STARTCHAR Scaron
ENCODING 352
SWIDTH 650 0
DWIDTH 11 0
BBX 10 17 1 0
BITMAP
6200
3600
1C00
1800
3F00
7F80
E100
E000
F000
FE00
7F80
1F80
03C0
0180
4380
FF80
7E00
ENDCHAR
STARTCHAR scaron
ENCODING 353
SWIDTH 482 0
DWIDTH 8 0
BBX 7 14 1 0
BITMAP
C4
6C
38
30
00
7C
FC
C0
F0
7C
1E
86
FE
7C
ENDCHAR
STARTCHAR uni0162
ENCODING 354
SWIDTH 594 0
DWIDTH 10 0
BBX 10 17 0 -4
BITMAP
FFC0
FFC0
0E00
0E00
0E00
0E00
0E00
0E00
0E00
0E00
0E00
0E00
0C00
0400
0E00
0200
1E00
ENDCHAR
STARTCHAR uni0163
ENCODING 355
SWIDTH 405 0
DWIDTH 7 0
BBX 7 17 0 -4
BITMAP
10
30
30
30
FC
FC
30
30
30
30
30
3E
1C
08
1C
04
3C
ENDCHAR
STARTCHAR Tcaron
ENCODING 356
SWIDTH 594 0
DWIDTH 10 0
BBX 10 17 0 0
BITMAP
3100
1B00
0E00
0C00
FFC0
FFC0
0E00
0E00
0E00
0E00
0E00
0E00
0E00
0E00
0E00
0E00
0C00
ENDCHAR
STARTCHAR tcaron
ENCODING 357
SWIDTH 405 0
DWIDTH 7 0
BBX 8 16 0 0
BITMAP
03
07
06
16
36
30
30
FC
FC
30
30
30
30
30
3E
1C
ENDCHAR
STARTCHAR Tbar
ENCODING 358
SWIDTH 594 0
DWIDTH 10 0
BBX 10 13 0 0
BITMAP
FFC0
FFC0
0E00
0E00
0E00
0E00
3F00
3F80
0E00
0E00
0E00
0E00
0C00
ENDCHAR
STARTCHAR tbar
ENCODING 359
SWIDTH 405 0
DWIDTH 7 0
BBX 7 13 0 0
BITMAP
10
30
30
30
FC
FC
30
FC
FE
30
30
3E
1C
ENDCHAR
STARTCHAR Utilde
ENCODING 360
SWIDTH 746 0
DWIDTH 13 0
BBX 11 16 1 0
BITMAP
1900
3F00
3300
60C0
E0E0
E1E0
E1E0
E1E0
E1E0
E1E0
E1E0
E1E0
E1C0
71C0
7F80
1F00
ENDCHAR
STARTCHAR utilde
ENCODING 361
SWIDTH 600 0
DWIDTH 10 0
BBX 8 13 1 0
BITMAP
32
7E
66
00
C3
E3
E3
E3
E3
E3
E7
FB
7B
ENDCHAR
STARTCHAR Umacron
ENCODING 362
SWIDTH 746 0
DWIDTH 13 0
BBX 11 16 1 0
BITMAP
3F00
3F80
0000
60C0
E0E0
E1E0
E1E0
E1E0
E1E0
E1E0
E1E0
E1E0
E1C0
71C0
7F80
1F00
ENDCHAR
STARTCHAR umacron
ENCODING 363
SWIDTH 600 0
DWIDTH 10 0
BBX 8 12 1 0
BITMAP
7E
7F
00
C3
E3
E3
E3
E3
E3
E7
FB
7B
ENDCHAR
STARTCHAR Ubreve
ENCODING 364
SWIDTH 746 0
DWIDTH 13 0
BBX 11 16 1 0
BITMAP
1100
1F00
0E00
60C0
E0E0
E1E0
E1E0
E1E0
E1E0
E1E0
E1E0
E1E0
E1C0
71C0
7F80
1F00
ENDCHAR
STARTCHAR ubreve
ENCODING 365
SWIDTH 600 0
DWIDTH 10 0
BBX 8 13 1 0
BITMAP
22
3E
1C
00
C3
E3
E3
E3
E3
E3
E7
FB
7B
ENDCHAR
STARTCHAR Uring
ENCODING 366
SWIDTH 746 0
DWIDTH 13 0
BBX 11 17 1 0
BITMAP
0E00
1A00
1A00
0E00
60C0
E0E0
E1E0
E1E0
E1E0
E1E0
E1E0
E1E0
E1E0
E1C0
71C0
7F80
1F00
ENDCHAR
STARTCHAR uring
ENCODING 367
SWIDTH 600 0
DWIDTH 10 0
BBX 8 14 1 0
BITMAP
1C
34
34
1C
00
C3
E3
E3
E3
E3
E3
E7
FB
7B
ENDCHAR
STARTCHAR Uhungarumlaut
ENCODING 368
SWIDTH 746 0
DWIDTH 13 0
BBX 11 19 1 0
BITMAP
0440
06E0
0EC0
1980
1100
0000
60C0
E0E0
E1E0
E1E0
E1E0
E1E0
E1E0
E1E0
E1E0
E1C0
71C0
7F80
1F00
ENDCHAR
STARTCHAR uhungarumlaut
ENCODING 369
SWIDTH 600 0
DWIDTH 10 0
BBX 10 16 1 0
BITMAP
0880
0DC0
1D80
3300
2200
0000
0000
C300
E300
E300
E300
E300
E300
E700
FB00
7B00
ENDCHAR
STARTCHAR Uogonek
ENCODING 370
SWIDTH 746 0
DWIDTH 13 0
BBX 11 18 1 -5
BITMAP
60C0
E0E0
E1E0
E1E0
E1E0
E1E0
E1E0
E1E0
E1E0
E1C0
71C0
7F80
1F00
0200
0200
0600
0380
0380
ENDCHAR
STARTCHAR uogonek
ENCODING 371
SWIDTH 600 0
DWIDTH 10 0
BBX 9 14 1 -5
BITMAP
C300
E300
E300
E300
E300
E300
E700
FB00
7B00
0200
0200
0600
0380
0380
ENDCHAR
STARTCHAR Wcircumflex
ENCODING 372
SWIDTH 1069 0
DWIDTH 18 0
BBX 17 17 1 0
BITMAP
018000
01C000
036000
022000
018000
C3C380
C3C380
E3E300
E7E700
E66700
666700
6E7600
7E3600
7C3E00
7C3E00
3C3C00
381C00
ENDCHAR
STARTCHAR wcircumflex
ENCODING 373
SWIDTH 853 0
DWIDTH 15 0
BBX 13 14 1 0
BITMAP
0600
0700
0D80
0880
0000
8610
C718
CF38
ED30
6DB0
69F0
78E0
38E0
30E0
ENDCHAR
STARTCHAR Ycircumflex
ENCODING 374
SWIDTH 648 0
DWIDTH 11 0
BBX 9 17 1 0
BITMAP
1800
1C00
3600
2200
0000
C180
E380
E380
7700
7F00
3E00
1C00
1C00
1C00
1C00
1C00
1C00
ENDCHAR
STARTCHAR ycircumflex
ENCODING 375
SWIDTH 541 0
DWIDTH 9 0
BBX 9 17 0 -3
BITMAP
1800
1C00
3600
2200
0000
E180
6380
7300
3700
3E00
1E00
1C00
1C00
1800
3800
3000
3000
ENDCHAR
STARTCHAR Ydieresis
ENCODING 376
SWIDTH 648 0
DWIDTH 11 0
BBX 9 16 1 0
BITMAP
2600
7700
2600
0000
C180
E380
E380
7700
7F00
3E00
1C00
1C00
1C00
1C00
1C00
1C00
ENDCHAR
STARTCHAR Zacute
ENCODING 377
SWIDTH 601 0
DWIDTH 10 0
BBX 9 18 1 0
BITMAP
0200
0600
0600
0C00
1800
FF80
FF80
0700
0F00
0E00
1E00
3C00
3800
7800
7000
F000
FF80
FF80
ENDCHAR
STARTCHAR zacute
ENCODING 378
SWIDTH 491 0
DWIDTH 8 0
BBX 7 15 1 0
BITMAP
04
0C
0C
18
30
00
FE
FE
1C
38
38
70
E0
FE
FE
ENDCHAR
STARTCHAR Zdotaccent
ENCODING 379
SWIDTH 601 0
DWIDTH 10 0
BBX 9 16 1 0
BITMAP
0C00
1C00
0C00
FF80
FF80
0700
0F00
0E00
1E00
3C00
3800
7800
7000
F000
FF80
FF80
ENDCHAR
STARTCHAR zdotaccent
ENCODING 380
SWIDTH 491 0
DWIDTH 8 0
BBX 7 13 1 0
BITMAP
18
38
18
00
FE
FE
1C
38
38
70
E0
FE
FE
ENDCHAR
STARTCHAR Zcaron
ENCODING 381
SWIDTH 601 0
DWIDTH 10 0
BBX 9 17 1 0
BITMAP
6200
3600
1C00
1800
FF80
FF80
0700
0F00
0E00
1E00
3C00
3800
7800
7000
F000
FF80
FF80
ENDCHAR
STARTCHAR zcaron
ENCODING 382
SWIDTH 491 0
DWIDTH 8 0
BBX 7 14 1 0
BITMAP
C4
6C
38
30
00
FE
FE
1C
38
38
70
E0
FE
FE
ENDCHAR
STARTCHAR florin
ENCODING 402
SWIDTH 633 0
DWIDTH 11 0
BBX 10 19 0 -4
BITMAP
0080
01C0
0300
0600
0600
0600
0E00
3F80
3F80
0C00
0C00
0C00
1800
1800
1800
1800
3000
7000
E000
ENDCHAR
STARTCHAR uni01C4
ENCODING 452
SWIDTH 1354 0
DWIDTH 23 0
BBX 22 17 1 0
BITMAP
000310
0001B0
0000E0
0000C0
7E07FC
FF87FC
E1C038
E1C078
E0E070
E0E0F0
E0E1E0
E0E1C0
E0E3C0
E1E380
E1C780
FF87FC
7E07FC
ENDCHAR
STARTCHAR uni01C5
ENCODING 453
SWIDTH 1244 0
DWIDTH 21 0
BBX 20 14 1 0
BITMAP
000620
7E0360
FF81C0
E1C180
E1C000
E0E7F0
E0E7F0
E0E0E0
E0E1C0
E0E1C0
E1E380
E1C700
FF8FF0
7E07F0
ENDCHAR
STARTCHAR uni01C6
ENCODING 454
SWIDTH 1115 0
DWIDTH 19 0
BBX 18 14 1 0
BITMAP
001880
030D80
038700
038600
038000
7B9FC0
FF9FC0
E38380
C38700
C38700
C38E00
E39C00
FFBFC0
7B1FC0
ENDCHAR
STARTCHAR uni01C7
ENCODING 455
SWIDTH 1152 0
DWIDTH 20 0
BBX 18 13 1 0
BITMAP
600180
E001C0
E001C0
E001C0
E001C0
E001C0
E001C0
E001C0
E001C0
E023C0
E03F80
FFBF80
7F1F00
ENDCHAR
STARTCHAR uni01C8
ENCODING 456
SWIDTH 873 0
DWIDTH 15 0
BBX 13 16 1 -3
BITMAP
6038
E038
E018
E000
E018
E038
E038
E038
E038
E038
E038
FFB8
7F38
0038
00F8
00F0
ENDCHAR
STARTCHAR uni01C9
ENCODING 457
SWIDTH 573 0
DWIDTH 10 0
BBX 8 16 1 -3
BITMAP
C7
E7
E3
E0
E3
E7
E7
E7
E7
E7
E7
E7
C7
07
1F
1E
ENDCHAR
STARTCHAR uni01CA
ENCODING 458
SWIDTH 1357 0
DWIDTH 23 0
BBX 21 13 1 0
BITMAP
606030
F06038
F06038
F86038
FC6038
EC6038
EE6038
E76038
E3E038
E3E478
E1E7F0
E0E7F0
6063E0
ENDCHAR
STARTCHAR uni01CB
ENCODING 459
SWIDTH 1078 0
DWIDTH 18 0
BBX 16 16 1 -3
BITMAP
6067
F067
F063
F860
FC63
EC67
EE67
E767
E3E7
E3E7
E1E7
E0E7
6067
0007
001F
001E
ENDCHAR
STARTCHAR uni01CC
ENCODING 460
SWIDTH 893 0
DWIDTH 15 0
BBX 13 16 1 -3
BITMAP
0038
0038
0018
0000
CE18
FF38
E738
E338
E338
E338
E338
E338
C338
0038
00F8
00F0
ENDCHAR
STARTCHAR uni01CD
ENCODING 461
SWIDTH 726 0
DWIDTH 12 0
BBX 12 17 0 0
BITMAP
1880
0D80
0700
0600
0700
0F00
0F80
1F80
1D80
19C0
39C0
38E0
7FE0
7FE0
7070
E070
6020
ENDCHAR
STARTCHAR uni01CE
ENCODING 462
SWIDTH 545 0
DWIDTH 9 0
BBX 7 14 1 0
BITMAP
C4
6C
38
30
00
7C
FE
06
3E
FE
C6
C6
FE
76
ENDCHAR
STARTCHAR uni01CF
ENCODING 463
SWIDTH 335 0
DWIDTH 6 0
BBX 5 17 1 0
BITMAP
88
D8
70
60
60
E0
E0
E0
E0
E0
E0
E0
E0
E0
E0
E0
60
ENDCHAR
STARTCHAR uni01D0
ENCODING 464
SWIDTH 270 0
DWIDTH 5 0
BBX 5 14 0 0
BITMAP
88
D8
70
60
00
60
70
70
70
70
70
70
70
60
ENDCHAR
STARTCHAR uni01D1
ENCODING 465
SWIDTH 797 0
DWIDTH 14 0
BBX 12 17 1 0
BITMAP
3100
1B00
0E00
0C00
1F80
7FC0
70E0
E0E0
E0F0
E0F0
E070
E0F0
E0F0
E0E0
70E0
7FC0
1F80
ENDCHAR
STARTCHAR uni01D2
ENCODING 466
SWIDTH 616 0
DWIDTH 10 0
BBX 9 14 1 0
BITMAP
6200
3600
1C00
1800
0000
3E00
7F00
E300
C380
C380
C380
E300
7F00
3E00
ENDCHAR
STARTCHAR uni01D3
ENCODING 467
SWIDTH 746 0
DWIDTH 13 0
BBX 11 17 1 0
BITMAP
3100
1B00
0E00
0C00
60C0
E0E0
E1E0
E1E0
E1E0
E1E0
E1E0
E1E0
E1E0
E1C0
71C0
7F80
1F00
ENDCHAR
STARTCHAR uni01D4
ENCODING 468
SWIDTH 600 0
DWIDTH 10 0
BBX 8 14 1 0
BITMAP
62
36
1C
18
00
C3
E3
E3
E3
E3
E3
E7
FB
7B
ENDCHAR
STARTCHAR uni01E2
ENCODING 482
SWIDTH 972 0
DWIDTH 17 0
BBX 15 16 1 0
BITMAP
03F0
03F8
0000
03FE
07FE
0DC0
0DC0
1DC0
19C0
39FE
30FE
7FE0
FFE0
E0E0
C0FE
C07E
ENDCHAR
STARTCHAR uni01E3
ENCODING 483
SWIDTH 865 0
DWIDTH 15 0
BBX 14 12 0 0
BITMAP
0FC0
0FE0
0000
3EF0
7FF8
039C
030C
3FFC
6300
E380
7FFC
7CF8
ENDCHAR
STARTCHAR Gcaron
ENCODING 486
SWIDTH 746 0
DWIDTH 13 0
BBX 11 17 1 0
BITMAP
1880
0D80
0700
0600
1F80
3FE0
7040
F000
E000
E000
E3E0
E3E0
E0E0
F0E0
78E0
3FE0
1FC0
ENDCHAR
STARTCHAR gcaron
ENCODING 487
SWIDTH 617 0
DWIDTH 11 0
BBX 8 17 1 -3
BITMAP
62
36
1C
18
00
7B
FF
E3
C3
C3
E3
FF
FF
7B
07
7F
7C
ENDCHAR
STARTCHAR uni01E8
ENCODING 488
SWIDTH 692 0
DWIDTH 12 0
BBX 10 17 1 0
BITMAP
3100
1B00
0E00
0C00
60C0
E1C0
E3C0
E780
EF00
EE00
FE00
EF00
E700
E380
E3C0
E1C0
60C0
ENDCHAR
STARTCHAR uni01E9
ENCODING 489
SWIDTH 550 0
DWIDTH 9 0
BBX 8 15 1 0
BITMAP
31
1B
CE
EC
E0
E0
E2
E7
EE
FC
FC
FC
EE
E7
C2
ENDCHAR
STARTCHAR uni01EA
ENCODING 490
SWIDTH 797 0
DWIDTH 14 0
BBX 12 18 1 -5
BITMAP
1F80
7FC0
70E0
E0E0
E0F0
E0F0
E070
E0F0
E0F0
E0E0
70E0
7FC0
1F80
0400
0400
0C00
0700
0700
ENDCHAR
STARTCHAR uni01EB
ENCODING 491
SWIDTH 616 0
DWIDTH 10 0
BBX 9 14 1 -5
BITMAP
3E00
7F00
E300
C380
C380
C380
E300
7F00
3E00
1000
1000
3000
1C00
1C00
ENDCHAR
STARTCHAR uni01F0
ENCODING 496
SWIDTH 276 0
DWIDTH 5 0
BBX 6 17 -1 -3
BITMAP
C4
6C
38
30
00
30
38
38
38
38
38
38
38
38
38
F0
F0
ENDCHAR
STARTCHAR uni01F1
ENCODING 497
SWIDTH 1354 0
DWIDTH 23 0
BBX 22 13 1 0
BITMAP
7E07FC
FF87FC
E1C038
E1C078
E0E070
E0E0F0
E0E1E0
E0E1C0
E0E3C0
E1E380
E1C780
FF87FC
7E07FC
ENDCHAR
STARTCHAR uni01F2
ENCODING 498
SWIDTH 1244 0
DWIDTH 21 0
BBX 20 13 1 0
BITMAP
7E0000
FF8000
E1C000
E1C000
E0E7F0
E0E7F0
E0E0E0
E0E1C0
E0E1C0
E1E380
E1C700
FF8FF0
7E07F0
ENDCHAR
STARTCHAR uni01F3
ENCODING 499
SWIDTH 1115 0
DWIDTH 19 0
BBX 18 13 1 0
BITMAP
030000
038000
038000
038000
7B9FC0
FF9FC0
E38380
C38700
C38700
C38E00
E39C00
FFBFC0
7B1FC0
ENDCHAR
STARTCHAR uni01F4
ENCODING 500
SWIDTH 746 0
DWIDTH 13 0
BBX 11 18 1 0
BITMAP
0080
0180
0180
0300
0600
1F80
3FE0
7040
F000
E000
E000
E3E0
E3E0
E0E0
F0E0
78E0
3FE0
1FC0
ENDCHAR
STARTCHAR uni01F5
ENCODING 501
SWIDTH 617 0
DWIDTH 11 0
BBX 8 18 1 -3
BITMAP
02
06
06
0C
18
00
7B
FF
E3
C3
C3
E3
FF
FF
7B
07
7F
7C
ENDCHAR
STARTCHAR uni01F8
ENCODING 504
SWIDTH 785 0
DWIDTH 13 0
BBX 11 18 1 0
BITMAP
0800
1C00
0C00
0600
0200
6060
F060
F060
F860
FC60
EC60
EE60
E760
E3E0
E3E0
E1E0
E0E0
6060
ENDCHAR
STARTCHAR uni01F9
ENCODING 505
SWIDTH 600 0
DWIDTH 10 0
BBX 8 15 1 0
BITMAP
20
70
30
18
08
00
CE
FF
E7
E3
E3
E3
E3
E3
C3
ENDCHAR
STARTCHAR Aringacute
ENCODING 506
SWIDTH 726 0
DWIDTH 12 0
BBX 12 23 0 0
BITMAP
0080
0180
0180
0300
0600
0000
0700
0D00
0D00
0700
0700
0F00
0F80
1F80
1D80
19C0
39C0
38E0
7FE0
7FE0
7070
E070
6020
ENDCHAR
STARTCHAR aringacute
ENCODING 507
SWIDTH 545 0
DWIDTH 9 0
BBX 7 19 1 0
BITMAP
04
0C
0C
18
30
38
68
68
38
00
7C
FE
06
3E
FE
C6
C6
FE
76
ENDCHAR
STARTCHAR AEacute
ENCODING 508
SWIDTH 972 0
DWIDTH 17 0
BBX 15 18 1 0
BITMAP
0008
0018
0018
0030
0060
03FE
07FE
0DC0
0DC0
1DC0
19C0
39FE
30FE
7FE0
FFE0
E0E0
C0FE
C07E
ENDCHAR
STARTCHAR aeacute
ENCODING 509
SWIDTH 865 0
DWIDTH 15 0
BBX 14 15 0 0
BITMAP
0040
00C0
00C0
0180
0300
0000
3EF0
7FF8
039C
030C
3FFC
6300
E380
7FFC
7CF8
ENDCHAR
STARTCHAR Oslashacute
ENCODING 510
SWIDTH 787 0
DWIDTH 13 0
BBX 12 19 1 -1
BITMAP
0080
0180
0180
0320
0660
1FC0
7FC0
71E0
E1E0
E3F0
E2F0
E670
ECF0
ECF0
F8E0
70E0
7FC0
7F80
6000
ENDCHAR
STARTCHAR oslashacute
ENCODING 511
SWIDTH 616 0
DWIDTH 10 0
BBX 9 16 1 -1
BITMAP
0200
0600
0600
0C00
1900
0300
3E00
7F00
E700
CF80
CB80
D380
F300
7F00
7E00
4000
ENDCHAR
STARTCHAR uni0200
ENCODING 512
SWIDTH 726 0
DWIDTH 12 0
BBX 12 19 0 0
BITMAP
4400
6E00
7600
3300
1900
0000
0700
0F00
0F80
1F80
1D80
19C0
39C0
38E0
7FE0
7FE0
7070
E070
6020
ENDCHAR
STARTCHAR uni0201
ENCODING 513
SWIDTH 545 0
DWIDTH 9 0
BBX 8 15 0 0
BITMAP
88
DC
EC
66
32
00
3E
7F
03
1F
7F
63
63
7F
3B
ENDCHAR
STARTCHAR uni0202
ENCODING 514
SWIDTH 726 0
DWIDTH 12 0
BBX 12 16 0 0
BITMAP
0700
0F80
0880
0700
0F00
0F80
1F80
1D80
19C0
39C0
38E0
7FE0
7FE0
7070
E070
6020
ENDCHAR
STARTCHAR uni0203
ENCODING 515
SWIDTH 545 0
DWIDTH 9 0
BBX 7 13 1 0
BITMAP
38
7C
44
00
7C
FE
06
3E
FE
C6
C6
FE
76
ENDCHAR
STARTCHAR uni0204
ENCODING 516
SWIDTH 609 0
DWIDTH 10 0
BBX 9 19 1 0
BITMAP
8800
DC00
EC00
6600
3200
0000
7F80
FF00
E000
E000
E000
E000
FF00
FF00
E000
E000
E000
FF80
7F80
ENDCHAR
STARTCHAR uni0205
ENCODING 517
SWIDTH 562 0
DWIDTH 10 0
BBX 9 15 0 0
BITMAP
8800
DC00
EC00
6600
3200
0000
1E00
3F00
7180
7F80
7F80
6000
7100
3F80
1E00
ENDCHAR
STARTCHAR uni0206
ENCODING 518
SWIDTH 609 0
DWIDTH 10 0
BBX 9 16 1 0
BITMAP
1C00
3E00
2200
7F80
FF00
E000
E000
E000
E000
FF00
FF00
E000
E000
E000
FF80
7F80
ENDCHAR
STARTCHAR uni0207
ENCODING 519
SWIDTH 562 0
DWIDTH 10 0
BBX 8 13 1 0
BITMAP
1C
3E
22
00
3C
7E
E3
FF
FF
C0
E2
7F
3C
ENDCHAR
STARTCHAR uni0208
ENCODING 520
SWIDTH 335 0
DWIDTH 6 0
BBX 7 19 -2 0
BITMAP
88
DC
EC
66
32
00
0C
1C
1C
1C
1C
1C
1C
1C
1C
1C
1C
1C
0C
ENDCHAR
STARTCHAR uni0209
ENCODING 521
SWIDTH 270 0
DWIDTH 5 0
BBX 7 16 -1 0
BITMAP
88
DC
EC
66
32
00
00
30
38
38
38
38
38
38
38
30
ENDCHAR
STARTCHAR uni020A
ENCODING 522
SWIDTH 335 0
DWIDTH 6 0
BBX 5 16 1 0
BITMAP
70
F8
88
60
E0
E0
E0
E0
E0
E0
E0
E0
E0
E0
E0
60
ENDCHAR
STARTCHAR uni020B
ENCODING 523
SWIDTH 270 0
DWIDTH 5 0
BBX 5 13 0 0
BITMAP
70
F8
88
00
60
70
70
70
70
70
70
70
60
ENDCHAR
STARTCHAR uni020C
ENCODING 524
SWIDTH 797 0
DWIDTH 14 0
BBX 12 19 1 0
BITMAP
4400
6E00
7600
3300
1900
0000
1F80
7FC0
70E0
E0E0
E0F0
E0F0
E070
E0F0
E0F0
E0E0
70E0
7FC0
1F80
ENDCHAR
STARTCHAR uni020D
ENCODING 525
SWIDTH 616 0
DWIDTH 10 0
BBX 10 15 0 0
BITMAP
8800
DC00
EC00
6600
3200
0000
1F00
3F80
7180
61C0
61C0
61C0
7180
3F80
1F00
ENDCHAR
STARTCHAR uni020E
ENCODING 526
SWIDTH 797 0
DWIDTH 14 0
BBX 12 16 1 0
BITMAP
0E00
1F00
1100
1F80
7FC0
70E0
E0E0
E0F0
E0F0
E070
E0F0
E0F0
E0E0
70E0
7FC0
1F80
ENDCHAR
STARTCHAR uni020F
ENCODING 527
SWIDTH 616 0
DWIDTH 10 0
BBX 9 13 1 0
BITMAP
1C00
3E00
2200
0000
3E00
7F00
E300
C380
C380
C380
E300
7F00
3E00
ENDCHAR
STARTCHAR uni0210
ENCODING 528
SWIDTH 707 0
DWIDTH 12 0
BBX 10 19 1 0
BITMAP
8800
DC00
EC00
6600
3200
0000
7F00
FFC0
E1C0
E1C0
E1C0
E1C0
FF00
FF80
E1C0
E1C0
E1C0
E1C0
60C0
ENDCHAR
STARTCHAR uni0211
ENCODING 529
SWIDTH 401 0
DWIDTH 7 0
BBX 9 15 -2 0
BITMAP
8800
DC00
EC00
6600
3200
0000
1B80
1F80
1C00
1C00
1C00
1C00
1C00
1C00
1800
ENDCHAR
STARTCHAR uni0212
ENCODING 530
SWIDTH 707 0
DWIDTH 12 0
BBX 10 16 1 0
BITMAP
0E00
1F00
1100
7F00
FFC0
E1C0
E1C0
E1C0
E1C0
FF00
FF80
E1C0
E1C0
E1C0
E1C0
60C0
ENDCHAR
STARTCHAR uni0213
ENCODING 531
SWIDTH 401 0
DWIDTH 7 0
BBX 6 13 1 0
BITMAP
70
F8
88
00
DC
FC
E0
E0
E0
E0
E0
E0
C0
ENDCHAR
STARTCHAR uni0214
ENCODING 532
SWIDTH 746 0
DWIDTH 13 0
BBX 11 19 1 0
BITMAP
8800
DC00
EC00
6600
3200
0000
60C0
E0E0
E1E0
E1E0
E1E0
E1E0
E1E0
E1E0
E1E0
E1C0
71C0
7F80
1F00
ENDCHAR
STARTCHAR uni0215
ENCODING 533
SWIDTH 600 0
DWIDTH 10 0
BBX 9 15 0 0
BITMAP
8800
DC00
EC00
6600
3200
0000
6180
7180
7180
7180
7180
7180
7380
7D80
3D80
ENDCHAR
STARTCHAR uni0216
ENCODING 534
SWIDTH 746 0
DWIDTH 13 0
BBX 11 16 1 0
BITMAP
0E00
1F00
1100
60C0
E0E0
E1E0
E1E0
E1E0
E1E0
E1E0
E1E0
E1E0
E1C0
71C0
7F80
1F00
ENDCHAR
STARTCHAR uni0217
ENCODING 535
SWIDTH 600 0
DWIDTH 10 0
BBX 8 13 1 0
BITMAP
1C
3E
22
00
C3
E3
E3
E3
E3
E3
E7
FB
7B
ENDCHAR
STARTCHAR uni0218
ENCODING 536
SWIDTH 650 0
DWIDTH 11 0
BBX 10 19 1 -6
BITMAP
3F00
7F80
E100
E000
F000
FE00
7F80
1F80
03C0
0180
4380
FF80
7E00
0000
0C00
1C00
1800
1800
1800
ENDCHAR
STARTCHAR uni0219
ENCODING 537
SWIDTH 486 0
DWIDTH 8 0
BBX 7 15 1 -6
BITMAP
7C
FC
C0
F0
7C
1E
86
FE
7C
00
30
70
60
60
60
ENDCHAR
STARTCHAR uni021A
ENCODING 538
SWIDTH 594 0
DWIDTH 10 0
BBX 10 19 0 -6
BITMAP
FFC0
FFC0
0E00
0E00
0E00
0E00
0E00
0E00
0E00
0E00
0E00
0E00
0C00
0000
0C00
1C00
1800
1800
1800
ENDCHAR
STARTCHAR uni021B
ENCODING 539
SWIDTH 405 0
DWIDTH 7 0
BBX 7 19 0 -6
BITMAP
10
30
30
30
FC
FC
30
30
30
30
30
3E
1C
00
18
38
30
30
30
ENDCHAR
STARTCHAR uni021E
ENCODING 542
SWIDTH 760 0
DWIDTH 13 0
BBX 11 17 1 0
BITMAP
3100
1B00
0E00
0C00
60C0
E0E0
E0E0
E0E0
E0E0
FFE0
FFE0
FFE0
E0E0
E0E0
E0E0
E0E0
60C0
ENDCHAR
STARTCHAR uni021F
ENCODING 543
SWIDTH 604 0
DWIDTH 10 0
BBX 8 15 1 0
BITMAP
31
1B
CE
EC
E0
E0
EE
FF
E7
E3
E3
E3
E3
E3
C3
ENDCHAR
STARTCHAR uni0226
ENCODING 550
SWIDTH 726 0
DWIDTH 12 0
BBX 12 16 0 0
BITMAP
0600
0E00
0600
0700
0F00
0F80
1F80
1D80
19C0
39C0
38E0
7FE0
7FE0
7070
E070
6020
ENDCHAR
STARTCHAR uni0227
ENCODING 551
SWIDTH 545 0
DWIDTH 9 0
BBX 7 13 1 0
BITMAP
18
38
18
00
7C
FE
06
3E
FE
C6
C6
FE
76
ENDCHAR
STARTCHAR uni0228
ENCODING 552
SWIDTH 609 0
DWIDTH 10 0
BBX 9 17 1 -4
BITMAP
7F80
FF00
E000
E000
E000
E000
FF00
FF00
E000
E000
E000
FF80
7F80
0800
1C00
0400
3C00
ENDCHAR
STARTCHAR uni0229
ENCODING 553
SWIDTH 562 0
DWIDTH 10 0
BBX 8 13 1 -4
BITMAP
3C
7E
E3
FF
FF
C0
E2
7F
3C
08
1C
04
3C
ENDCHAR
STARTCHAR uni022E
ENCODING 558
SWIDTH 797 0
DWIDTH 14 0
BBX 12 16 1 0
BITMAP
0600
0E00
0600
1F80
7FC0
70E0
E0E0
E0F0
E0F0
E070
E0F0
E0F0
E0E0
70E0
7FC0
1F80
ENDCHAR
STARTCHAR uni022F
ENCODING 559
SWIDTH 616 0
DWIDTH 10 0
BBX 9 13 1 0
BITMAP
1800
3800
1800
0000
3E00
7F00
E300
C380
C380
C380
E300
7F00
3E00
ENDCHAR
STARTCHAR uni0232
ENCODING 562
SWIDTH 648 0
DWIDTH 11 0
BBX 9 16 1 0
BITMAP
7E00
7F00
0000
0000
C180
E380
E380
7700
7F00
3E00
1C00
1C00
1C00
1C00
1C00
1C00
ENDCHAR
STARTCHAR uni0233
ENCODING 563
SWIDTH 541 0
DWIDTH 9 0
BBX 9 15 0 -3
BITMAP
7E00
7F00
0000
E180
6380
7300
3700
3E00
1E00
1C00
1C00
1800
3800
3000
3000
ENDCHAR
STARTCHAR uni0237
ENCODING 567
SWIDTH 276 0
DWIDTH 5 0
BBX 5 12 -1 -3
BITMAP
30
38
38
38
38
38
38
38
38
38
F0
F0
ENDCHAR
STARTCHAR uni02BC
ENCODING 700
SWIDTH 292 0
DWIDTH 5 0
BBX 3 5 1 -3
BITMAP
60
E0
C0
C0
C0
ENDCHAR
STARTCHAR circumflex
ENCODING 710
SWIDTH 277 0
DWIDTH 5 0
BBX 5 4 0 10
BITMAP
60
70
D8
88
ENDCHAR
STARTCHAR caron
ENCODING 711
SWIDTH 277 0
DWIDTH 5 0
BBX 5 4 0 10
BITMAP
88
D8
70
60
ENDCHAR
STARTCHAR uni02C9
ENCODING 713
SWIDTH 277 0
DWIDTH 5 0
BBX 7 2 -1 11
BITMAP
FE
FC
ENDCHAR
STARTCHAR breve
ENCODING 728
SWIDTH 277 0
DWIDTH 5 0
BBX 5 3 0 10
BITMAP
88
F8
70
ENDCHAR
STARTCHAR dotaccent
ENCODING 729
SWIDTH 316 0
DWIDTH 5 0
BBX 3 3 1 10
BITMAP
60
E0
60
ENDCHAR
STARTCHAR ring
ENCODING 730
SWIDTH 277 0
DWIDTH 5 0
BBX 4 4 0 10
BITMAP
70
D0
D0
70
ENDCHAR
STARTCHAR ogonek
ENCODING 731
SWIDTH 277 0
DWIDTH 5 0
BBX 4 5 0 -5
BITMAP
60
40
C0
70
70
ENDCHAR
STARTCHAR tilde
ENCODING 732
SWIDTH 277 0
DWIDTH 5 0
BBX 6 3 -1 10
BITMAP
64
FC
CC
ENDCHAR
STARTCHAR hungarumlaut
ENCODING 733
SWIDTH 277 0
DWIDTH 5 0
BBX 8 5 -1 11
BITMAP
22
37
76
CC
88
ENDCHAR
STARTCHAR uni0307
ENCODING 775
SWIDTH 292 0
DWIDTH 5 0
BBX 3 3 1 3
BITMAP
60
E0
60
ENDCHAR
STARTCHAR uni030F
ENCODING 783
SWIDTH 277 0
DWIDTH 5 0
BBX 7 5 -1 11
BITMAP
88
DC
EC
66
32
ENDCHAR
STARTCHAR uni0311
ENCODING 785
SWIDTH 277 0
DWIDTH 5 0
BBX 5 3 0 10
BITMAP
70
F8
88
ENDCHAR
STARTCHAR uni0312
ENCODING 786
SWIDTH 292 0
DWIDTH 5 0
BBX 3 5 1 10
BITMAP
20
60
60
60
E0
ENDCHAR
STARTCHAR uni0326
ENCODING 806
SWIDTH 316 0
DWIDTH 5 0
BBX 3 5 1 -6
BITMAP
60
E0
C0
C0
C0
ENDCHAR
STARTCHAR uni0394
ENCODING 916
SWIDTH 684 0
DWIDTH 12 0
BBX 11 13 0 0
BITMAP
0E00
0F00
0F00
1B00
1B80
1980
3980
31C0
30C0
70C0
60E0
7FE0
FFE0
ENDCHAR
STARTCHAR Sigma
ENCODING 931
SWIDTH 701 0
DWIDTH 12 0
BBX 10 15 1 -2
BITMAP
7F80
FFC0
FFC0
7000
7800
3C00
0E00
0600
0E00
1C00
3800
7000
7F80
FFC0
7FC0
ENDCHAR
STARTCHAR uni03A9
ENCODING 937
SWIDTH 811 0
DWIDTH 14 0
BBX 12 13 0 0
BITMAP
0F80
3FE0
7FF0
79F0
F070
F070
7070
7070
7060
30E0
10C0
F8F0
F9F0
ENDCHAR
STARTCHAR uni03BC
ENCODING 956
SWIDTH 600 0
DWIDTH 10 0
BBX 8 12 1 -3
BITMAP
C3
C3
E3
E3
E3
E3
E7
FF
FB
E0
C0
40
ENDCHAR
STARTCHAR pi
ENCODING 960
SWIDTH 674 0
DWIDTH 11 0
BBX 10 10 1 0
BITMAP
FFC0
FFC0
3380
3300
7300
7300
6380
6380
6380
E180
ENDCHAR
STARTCHAR uni1E02
ENCODING 7682
SWIDTH 695 0
DWIDTH 12 0
BBX 10 16 1 0
BITMAP
0C00
1C00
0C00
7F00
FF80
E3C0
E1C0
E1C0
E380
FF00
FF80
E1C0
E1C0
E1C0
FF80
7F00
ENDCHAR
STARTCHAR uni1E03
ENCODING 7683
SWIDTH 624 0
DWIDTH 11 0
BBX 9 14 1 0
BITMAP
0600
CE00
E600
E000
E000
FE00
FF00
E380
E380
E380
E380
E380
FF00
CE00
ENDCHAR
STARTCHAR uni1E0A
ENCODING 7690
SWIDTH 753 0
DWIDTH 13 0
BBX 11 16 1 0
BITMAP
0C00
1C00
0C00
7E00
FF80
E1C0
E1C0
E0E0
E0E0
E0E0
E0E0
E0E0
E1E0
E1C0
FF80
7E00
ENDCHAR
STARTCHAR uni1E0B
ENCODING 7691
SWIDTH 624 0
DWIDTH 11 0
BBX 9 14 1 0
BITMAP
1800
3B00
1B80
0380
0380
7B80
FF80
E380
C380
C380
C380
E380
FF80
7B00
ENDCHAR
STARTCHAR uni1E1E
ENCODING 7710
SWIDTH 569 0
DWIDTH 10 0
BBX 8 16 1 0
BITMAP
0C
1C
0C
7F
FF
E0
E0
E0
E0
FF
FF
E0
E0
E0
E0
60
ENDCHAR
STARTCHAR uni1E1F
ENCODING 7711
SWIDTH 367 0
DWIDTH 6 0
BBX 7 16 0 0
BITMAP
18
38
18
1E
3C
30
30
FC
FC
30
30
30
30
30
30
30
ENDCHAR
STARTCHAR uni1E40
ENCODING 7744
SWIDTH 979 0
DWIDTH 17 0
BBX 14 16 1 0
BITMAP
0180
0380
0180
7018
F83C
F83C
F87C
FC6C
ECEC
EEEC
E6CC
E7CC
E78C
E38C
E30C
400C
ENDCHAR
STARTCHAR uni1E41
ENCODING 7745
SWIDTH 936 0
DWIDTH 16 0
BBX 14 13 1 0
BITMAP
0300
0700
0300
0000
CE78
FFFC
E79C
E31C
E31C
E31C
E31C
E31C
C30C
ENDCHAR
STARTCHAR uni1E56
ENCODING 7766
SWIDTH 674 0
DWIDTH 11 0
BBX 10 16 1 0
BITMAP
0C00
1C00
0C00
7F00
FF80
E1C0
E1C0
E1C0
E1C0
FF80
FF00
E000
E000
E000
E000
6000
ENDCHAR
STARTCHAR uni1E57
ENCODING 7767
SWIDTH 624 0
DWIDTH 11 0
BBX 9 16 1 -3
BITMAP
6000
E000
6000
0000
CE00
FF00
E380
E380
E380
E380
E380
FF00
FE00
E000
E000
C000
ENDCHAR
STARTCHAR uni1E60
ENCODING 7776
SWIDTH 650 0
DWIDTH 11 0
BBX 10 16 1 0
BITMAP
0C00
1C00
0C00
3F00
7F80
E100
E000
F000
FE00
7F80
1F80
03C0
0180
4380
FF80
7E00
ENDCHAR
STARTCHAR uni1E61
ENCODING 7777
SWIDTH 486 0
DWIDTH 8 0
BBX 7 13 1 0
BITMAP
18
38
18
00
7C
FC
C0
F0
7C
1E
86
FE
7C
ENDCHAR
STARTCHAR uni1E6A
ENCODING 7786
SWIDTH 594 0
DWIDTH 10 0
BBX 10 16 0 0
BITMAP
0C00
1C00
0C00
FFC0
FFC0
0E00
0E00
0E00
0E00
0E00
0E00
0E00
0E00
0E00
0E00
0C00
ENDCHAR
STARTCHAR uni1E6B
ENCODING 7787
SWIDTH 405 0
DWIDTH 7 0
BBX 7 16 0 0
BITMAP
30
70
30
10
30
30
30
FC
FC
30
30
30
30
30
3E
1C
ENDCHAR
STARTCHAR Wgrave
ENCODING 7808
SWIDTH 1069 0
DWIDTH 18 0
BBX 17 18 1 0
BITMAP
040000
0E0000
060000
030000
010000
018000
C3C380
C3C380
E3E300
E7E700
E66700
666700
6E7600
7E3600
7C3E00
7C3E00
3C3C00
381C00
ENDCHAR
STARTCHAR wgrave
ENCODING 7809
SWIDTH 853 0
DWIDTH 15 0
BBX 13 15 1 0
BITMAP
0800
1C00
0C00
0600
0200
0000
8610
C718
CF38
ED30
6DB0
69F0
78E0
38E0
30E0
ENDCHAR
STARTCHAR Wacute
ENCODING 7810
SWIDTH 1069 0
DWIDTH 18 0
BBX 17 18 1 0
BITMAP
002000
006000
006000
00C000
018000
018000
C3C380
C3C380
E3E300
E7E700
E66700
666700
6E7600
7E3600
7C3E00
7C3E00
3C3C00
381C00
ENDCHAR
STARTCHAR wacute
ENCODING 7811
SWIDTH 853 0
DWIDTH 15 0
BBX 13 15 1 0
BITMAP
0080
0180
0180
0300
0600
0000
8610
C718
CF38
ED30
6DB0
69F0
78E0
38E0
30E0
ENDCHAR
STARTCHAR Wdieresis
ENCODING 7812
SWIDTH 1069 0
DWIDTH 18 0
BBX 17 16 1 0
BITMAP
026000
077000
026000
018000
C3C380
C3C380
E3E300
E7E700
E66700
666700
6E7600
7E3600
7C3E00
7C3E00
3C3C00
381C00
ENDCHAR
STARTCHAR wdieresis
ENCODING 7813
SWIDTH 853 0
DWIDTH 15 0
BBX 13 13 1 0
BITMAP
0980
1DC0
0980
0000
8610
C718
CF38
ED30
6DB0
69F0
78E0
38E0
30E0
ENDCHAR
STARTCHAR uni1EBC
ENCODING 7868
SWIDTH 609 0
DWIDTH 10 0
BBX 9 16 1 0
BITMAP
3200
7E00
6600
7F80
FF00
E000
E000
E000
E000
FF00
FF00
E000
E000
E000
FF80
7F80
ENDCHAR
STARTCHAR uni1EBD
ENCODING 7869
SWIDTH 562 0
DWIDTH 10 0
BBX 8 13 1 0
BITMAP
32
7E
66
00
3C
7E
E3
FF
FF
C0
E2
7F
3C
ENDCHAR
STARTCHAR Ygrave
ENCODING 7922
SWIDTH 648 0
DWIDTH 11 0
BBX 9 18 1 0
BITMAP
2000
7000
3000
1800
0800
0000
C180
E380
E380
7700
7F00
3E00
1C00
1C00
1C00
1C00
1C00
1C00
ENDCHAR
STARTCHAR ygrave
ENCODING 7923
SWIDTH 541 0
DWIDTH 9 0
BBX 9 18 0 -3
BITMAP
2000
7000
3000
1800
0800
0000
E180
6380
7300
3700
3E00
1E00
1C00
1C00
1800
3800
3000
3000
ENDCHAR
STARTCHAR uni1EF8
ENCODING 7928
SWIDTH 648 0
DWIDTH 11 0
BBX 9 16 1 0
BITMAP
3200
7E00
6600
0000
C180
E380
E380
7700
7F00
3E00
1C00
1C00
1C00
1C00
1C00
1C00
ENDCHAR
STARTCHAR uni1EF9
ENCODING 7929
SWIDTH 541 0
DWIDTH 9 0
BBX 9 16 0 -3
BITMAP
3200
7E00
6600
0000
E180
6380
7300
3700
3E00
1E00
1C00
1C00
1800
3800
3000
3000
ENDCHAR
STARTCHAR endash
ENCODING 8211
SWIDTH 500 0
DWIDTH 9 0
BBX 8 2 0 4
BITMAP
FF
FF
ENDCHAR
STARTCHAR emdash
ENCODING 8212
SWIDTH 1000 0
DWIDTH 17 0
BBX 17 2 0 4
BITMAP
FFFF80
FFFF80
ENDCHAR
STARTCHAR quoteleft
ENCODING 8216
SWIDTH 316 0
DWIDTH 5 0
BBX 3 5 1 8
BITMAP
60
60
60
E0
C0
ENDCHAR
STARTCHAR quoteright
ENCODING 8217
SWIDTH 316 0
DWIDTH 5 0
BBX 3 5 1 8
BITMAP
60
60
60
C0
C0
ENDCHAR
STARTCHAR quotesinglbase
ENCODING 8218
SWIDTH 316 0
DWIDTH 5 0
BBX 3 5 1 -3
BITMAP
60
60
60
C0
C0
ENDCHAR
STARTCHAR quotedblleft
ENCODING 8220
SWIDTH 575 0
DWIDTH 10 0
BBX 7 5 1 8
BITMAP
22
66
66
EE
EE
ENDCHAR
STARTCHAR quotedblright
ENCODING 8221
SWIDTH 575 0
DWIDTH 10 0
BBX 8 5 1 8
BITMAP
77
66
66
66
CC
ENDCHAR
STARTCHAR quotedblbase
ENCODING 8222
SWIDTH 575 0
DWIDTH 10 0
BBX 8 5 1 -3
BITMAP
77
66
66
66
CC
ENDCHAR
STARTCHAR dagger
ENCODING 8224
SWIDTH 633 0
DWIDTH 11 0
BBX 8 13 1 0
BITMAP
08
1C
1C
7F
FF
1C
1C
1C
1C
1C
1C
1C
18
ENDCHAR
STARTCHAR daggerdbl
ENCODING 8225
SWIDTH 633 0
DWIDTH 11 0
BBX 8 13 1 0
BITMAP
08
18
1C
FF
7F
1C
1C
1C
7F
FF
1C
18
08
ENDCHAR
STARTCHAR bullet
ENCODING 8226
SWIDTH 500 0
DWIDTH 9 0
BBX 6 6 1 3
BITMAP
38
7C
FC
FC
7C
38
ENDCHAR
STARTCHAR ellipsis
ENCODING 8230
SWIDTH 950 0
DWIDTH 16 0
BBX 14 3 1 0
BITMAP
6318
E31C
631C
ENDCHAR
STARTCHAR perthousand
ENCODING 8240
SWIDTH 1144 0
DWIDTH 19 0
BBX 19 13 0 0
BITMAP
784000
78C000
CC8000
CD8000
CD0000
4F0000
7AF1C0
069360
059A60
0D9E60
099A60
10F3E0
10F1C0
ENDCHAR
STARTCHAR guilsinglleft
ENCODING 8249
SWIDTH 316 0
DWIDTH 5 0
BBX 4 9 1 0
BITMAP
30
60
60
E0
C0
E0
60
60
30
ENDCHAR
STARTCHAR guilsinglright
ENCODING 8250
SWIDTH 316 0
DWIDTH 5 0
BBX 4 9 1 0
BITMAP
C0
C0
E0
60
70
60
E0
C0
C0
ENDCHAR
STARTCHAR fraction
ENCODING 8260
SWIDTH 326 0
DWIDTH 6 0
BBX 6 13 0 0
BITMAP
0C
08
18
18
10
30
30
20
60
60
C0
C0
C0
ENDCHAR
STARTCHAR uni2074
ENCODING 8308
SWIDTH 381 0
DWIDTH 6 0
BBX 6 7 0 6
BITMAP
18
28
28
48
FC
08
08
ENDCHAR
STARTCHAR Euro
ENCODING 8364
SWIDTH 720 0
DWIDTH 12 0
BBX 12 13 0 0
BITMAP
07C0
1FF0
3FF0
3800
FF80
3800
3800
FF80
3800
3C20
1FF0
0FE0
07C0
ENDCHAR
STARTCHAR uni2113
ENCODING 8467
SWIDTH 405 0
DWIDTH 7 0
BBX 7 13 0 0
BITMAP
1C
36
36
34
38
30
70
B0
30
30
30
38
3C
ENDCHAR
STARTCHAR trademark
ENCODING 8482
SWIDTH 971 0
DWIDTH 17 0
BBX 14 7 1 6
BITMAP
F000
FB9C
639C
639C
63FC
636C
636C
ENDCHAR
STARTCHAR Omega
ENCODING 8486
SWIDTH 751 0
DWIDTH 13 0
BBX 12 13 0 0
BITMAP
0F80
3FE0
7FF0
79F0
F070
F070
7070
7070
7060
30E0
10C0
F8F0
F9F0
ENDCHAR
STARTCHAR estimated
ENCODING 8494
SWIDTH 579 0
DWIDTH 10 0
BBX 8 9 1 0
BITMAP
3C
46
C2
C3
FE
C0
C0
C2
3C
ENDCHAR
STARTCHAR partialdiff
ENCODING 8706
SWIDTH 639 0
DWIDTH 11 0
BBX 9 14 1 0
BITMAP
FE00
FF00
0700
0380
0380
3980
7F80
E380
C380
C380
C300
E700
FE00
7C00
ENDCHAR
STARTCHAR emptyset
ENCODING 8709
SWIDTH 852 0
DWIDTH 14 0
BBX 10 12 2 0
BITMAP
0040
1E80
3380
61C0
C240
C640
CC40
C840
70C0
3380
7F00
4000
ENDCHAR
STARTCHAR product
ENCODING 8719
SWIDTH 794 0
DWIDTH 14 0
BBX 12 13 1 0
BITMAP
FFF0
FFF0
70C0
70C0
70C0
70C0
70C0
70C0
70C0
70C0
70C0
70C0
30C0
ENDCHAR
STARTCHAR summation
ENCODING 8721
SWIDTH 625 0
DWIDTH 11 0
BBX 11 15 0 -2
BITMAP
7FE0
FFE0
7000
3800
1C00
1C00
0E00
0700
0E00
1C00
1800
3000
7FC0
FFE0
FFE0
ENDCHAR
STARTCHAR minus
ENCODING 8722
SWIDTH 408 0
DWIDTH 7 0
BBX 7 2 0 4
BITMAP
7C
FE
ENDCHAR
STARTCHAR uni2215
ENCODING 8725
SWIDTH 166 0
DWIDTH 3 0
BBX 5 14 1 -1
BITMAP
08
18
18
10
30
30
20
60
60
40
C0
C0
80
80
ENDCHAR
STARTCHAR uni2219
ENCODING 8729
SWIDTH 277 0
DWIDTH 5 0
BBX 3 3 1 3
BITMAP
60
E0
60
ENDCHAR
STARTCHAR radical
ENCODING 8730
SWIDTH 707 0
DWIDTH 12 0
BBX 10 15 1 -1
BITMAP
00C0
01C0
01C0
01C0
0380
0380
0380
0700
E700
E700
FE00
7E00
3E00
3C00
1800
ENDCHAR
STARTCHAR infinity
ENCODING 8734
SWIDTH 819 0
DWIDTH 14 0
BBX 12 6 1 2
BITMAP
79E0
CF30
8610
8610
DBB0
70E0
ENDCHAR
STARTCHAR integral
ENCODING 8747
SWIDTH 416 0
DWIDTH 7 0
BBX 7 19 0 -3
BITMAP
0E
1E
18
18
30
30
30
30
18
18
18
18
18
18
18
18
38
70
F0
ENDCHAR
STARTCHAR approxequal
ENCODING 8776
SWIDTH 603 0
DWIDTH 10 0
BBX 8 7 1 2
BITMAP
F3
FF
8E
00
61
FF
DF
ENDCHAR
STARTCHAR notequal
ENCODING 8800
SWIDTH 583 0
DWIDTH 10 0
BBX 8 11 1 0
BITMAP
04
06
0C
FF
FF
18
18
FF
FF
30
60
ENDCHAR
STARTCHAR lessequal
ENCODING 8804
SWIDTH 603 0
DWIDTH 10 0
BBX 8 11 1 0
BITMAP
03
0F
7C
E0
E0
78
0F
03
00
00
FF
ENDCHAR
STARTCHAR greaterequal
ENCODING 8805
SWIDTH 603 0
DWIDTH 10 0
BBX 9 11 1 0
BITMAP
C000
F000
1E00
0700
0780
1E00
F800
C000
0000
0000
FF00
ENDCHAR
STARTCHAR lozenge
ENCODING 9674
SWIDTH 658 0
DWIDTH 11 0
BBX 9 15 1 -1
BITMAP
0800
1C00
1C00
3600
3300
6300
6180
C180
6180
6300
3300
3600
1C00
1C00
0800
ENDCHAR
STARTCHAR uniFB01
ENCODING 64257
SWIDTH 632 0
DWIDTH 11 0
BBX 10 13 0 0
BITMAP
1DC0
3DC0
3000
7000
FF80
FFC0
71C0
71C0
71C0
71C0
71C0
31C0
3180
ENDCHAR
STARTCHAR uniFB02
ENCODING 64258
SWIDTH 632 0
DWIDTH 11 0
BBX 9 13 0 0
BITMAP
1D80
3F80
3180
7180
FD80
FD80
7180
7180
7180
7180
7180
7180
3180
ENDCHAR
STARTCHAR .notdef
ENCODING -1
SWIDTH 422 0
DWIDTH 7 0
BBX 1 1 0 0
BITMAP
00
ENDCHAR
STARTCHAR .null
ENCODING -1
SWIDTH 0 0
DWIDTH 0 0
BBX 1 1 0 0
BITMAP
00
ENDCHAR
STARTCHAR uni013B.001
ENCODING -1
SWIDTH 580 0
DWIDTH 10 0
BBX 9 19 1 -6
BITMAP
6000
E000
E000
E000
E000
E000
E000
E000
E000
E000
E000
FF80
7F00
0000
0C00
1C00
1800
1800
1800
ENDCHAR
STARTCHAR uni013B.002
ENCODING -1
SWIDTH 580 0
DWIDTH 10 0
BBX 9 19 1 -6
BITMAP
6000
E000
E000
E000
E000
E000
E000
E000
E000
E000
E000
FF80
7F00
0000
0C00
1C00
1800
1800
1800
ENDCHAR
STARTCHAR NULL
ENCODING -1
SWIDTH 292 0
DWIDTH 5 0
BBX 1 1 0 0
BITMAP
00
ENDCHAR
STARTCHAR caron.alt
ENCODING -1
SWIDTH 321 0
DWIDTH 5 0
BBX 3 5 2 3
BITMAP
60
E0
C0
C0
C0
ENDCHAR
STARTCHAR dotaccentcmb
ENCODING -1
SWIDTH 292 0
DWIDTH 5 0
BBX 3 2 1 11
BITMAP
E0
E0
ENDCHAR
STARTCHAR ff
ENCODING -1
SWIDTH 698 0
DWIDTH 12 0
BBX 13 13 0 0
BITMAP
1E78
3CF0
30C0
30C0
FFF0
FFF0
30C0
30C0
30C0
30C0
30C0
30C0
30C0
ENDCHAR
STARTCHAR ffi
ENCODING -1
SWIDTH 979 0
DWIDTH 17 0
BBX 16 13 0 0
BITMAP
1E7F
3CF7
30C6
30C0
FFF6
FFF7
30C7
30C7
30C7
30C7
30C7
30C7
30C6
ENDCHAR
STARTCHAR ffl
ENCODING -1
SWIDTH 979 0
DWIDTH 17 0
BBX 16 13 0 0
BITMAP
1E7E
3CF7
30C7
30C7
FFF7
FFF7
30C7
30C7
30C7
30C7
30C7
30C7
30C6
ENDCHAR
STARTCHAR fj
ENCODING -1
SWIDTH 660 0
DWIDTH 11 0
BBX 10 16 0 -3
BITMAP
1FC0
3DC0
30C0
3000
FCC0
FDC0
31C0
31C0
31C0
31C0
31C0
31C0
31C0
01C0
07C0
0780
ENDCHAR
STARTCHAR foundryicon
ENCODING -1
SWIDTH 657 0
DWIDTH 11 0
BBX 11 11 0 0
BITMAP
0400
0400
0400
0600
FFE0
35C0
1500
1F00
1F00
1100
2080
ENDCHAR
STARTCHAR idotaccent
ENCODING -1
SWIDTH 270 0
DWIDTH 5 0
BBX 3 13 1 0
BITMAP
60
E0
60
00
C0
E0
E0
E0
E0
E0
E0
E0
C0
ENDCHAR
STARTCHAR middot
ENCODING -1
SWIDTH 292 0
DWIDTH 5 0
BBX 3 3 1 3
BITMAP
60
E0
60
ENDCHAR
STARTCHAR slashbar
ENCODING -1
SWIDTH 292 0
DWIDTH 5 0
BBX 8 4 -1 5
BITMAP
03
0F
7C
E0
ENDCHAR
STARTCHAR uniFB00
ENCODING -1
SWIDTH 698 0
DWIDTH 12 0
BBX 13 13 0 0
BITMAP
1E78
3CF0
30C0
30C0
FFF0
FFF0
30C0
30C0
30C0
30C0
30C0
30C0
30C0
ENDCHAR
STARTCHAR uniFB03
ENCODING -1
SWIDTH 979 0
DWIDTH 17 0
BBX 16 13 0 0
BITMAP
1E7F
3CF7
30C6
30C0
FFF6
FFF7
30C7
30C7
30C7
30C7
30C7
30C7
30C6
ENDCHAR
STARTCHAR uniFB04
ENCODING -1
SWIDTH 979 0
DWIDTH 17 0
BBX 16 13 0 0
BITMAP
1E7E
3CF7
30C7
30C7
FFF7
FFF7
30C7
30C7
30C7
30C7
30C7
30C7
30C6
ENDCHAR
ENDFONT
